<svg xmlns="http://www.w3.org/2000/svg" viewBox="0 0 76.03 40.42"><defs><style>.cls-1{fill:#231815;}</style></defs><g id="图层_2" data-name="图层 2"><g id="图层_1-2" data-name="图层 1"><path class="cls-1" d="M57.53,37.67a17.07,17.07,0,0,0,13.14-5.06A17.2,17.2,0,0,0,76,19.54c0-9.27-8.21-17.32-17-17.42a18.89,18.89,0,0,0-13.32,5c-4,3.53-7.39,7.65-11.22,11.34C30,22.75,25.61,27.22,21.21,31.62c-.56.55-1,.95-1.82.17-3.48-3.47-7-6.89-10.52-10.36-.44-.44-1-1-.3-1.74,1.43-1.47,2.8-3,4.21-4.5,2.14-2.28,4.74-4.1,6.74-6.52.61-.73,1-.56,1.65,0,2.92,2.83,5.81,5.7,8.52,8.73.68.75,1.13.66,1.77,0,1-1.09,2.09-2.12,3.17-3.16.49-.47.59-.8,0-1.35-2.11-2-4.16-4.07-6.23-6.11S24.56,2.89,22.57,1A3,3,0,0,0,18.13.94c-2.25,2.12-4.43,4.3-6.62,6.48Q6.35,12.54,1.21,17.68a3.33,3.33,0,0,0,0,5.12c.84.84,1.73,1.63,2.56,2.47,4.67,4.67,9.31,9.36,14,14a3.37,3.37,0,0,0,5,0c2.45-2.38,4.85-4.81,7.3-7.19,7-6.84,13.67-14,21-20.58,5-4.48,9.44-3.38,13.62-.83,4,2.43,5.23,6.49,4.65,10.93a10.56,10.56,0,0,1-7.57,9c-4.21,1.44-8,.29-11.27-2.67-1.92-1.71-3.7-3.57-5.52-5.38-.57-.57-.9-.56-1.44,0-1,1.09-2.09,2.14-3.19,3.15-.58.54-.62.86,0,1.43,2,1.87,3.9,3.85,5.91,5.71C49.47,35.82,53.08,38.1,57.53,37.67Z"/><path class="cls-1" d="M18.92,23.86v.39c0,1.68.46,2.33,1.66,2.31s1.63-.77,1.64-2.28c0-2.36,0-2.36,2.36-2.37q2.24,0,2.28-1.62c0-1.17-.61-1.67-2.17-1.68-2.44,0-2.44,0-2.47-2.51,0-.17,0-.34,0-.51A1.57,1.57,0,0,0,20.34,14c-1.08.06-1.42.71-1.43,1.72,0,2.85,0,2.86-3,2.91-1.09,0-1.64.48-1.69,1.61s.58,1.62,1.61,1.7a9.31,9.31,0,0,0,1.67,0c1-.11,1.57.19,1.38,1.32A4.56,4.56,0,0,0,18.92,23.86Z"/><path class="cls-1" d="M58,21.43c1.54,0,3.09-.06,4.63,0,1.15.06,1.56-.57,1.65-1.52s-.58-1.59-1.7-1.59c-3.09,0-6.18,0-9.27,0-1.14,0-1.56.5-1.58,1.52s.46,1.65,1.63,1.61C54.87,21.39,56.42,21.43,58,21.43Z"/><path class="cls-1" d="M45.67,7.09A18.89,18.89,0,0,1,59,2.12c8.83.1,17,8.15,17,17.42a17.2,17.2,0,0,1-5.36,13.07,17.07,17.07,0,0,1-13.14,5.06c-4.45.43-8.06-1.85-11.33-4.85-2-1.86-3.91-3.84-5.91-5.71-.61-.57-.57-.89,0-1.43,1.1-1,2.17-2.06,3.19-3.15.54-.57.87-.58,1.44,0,1.82,1.81,3.6,3.67,5.52,5.38,3.3,3,7.06,4.11,11.27,2.67a10.56,10.56,0,0,0,7.57-8.95c.58-4.44-.68-8.5-4.65-10.93C60.46,8.14,56,7,51,11.52c-7.28,6.56-14,13.74-21,20.58-2.45,2.38-4.85,4.81-7.3,7.19a3.37,3.37,0,0,1-5,0c-4.67-4.65-9.31-9.34-14-14C2.92,24.43,2,23.64,1.19,22.8a3.33,3.33,0,0,1,0-5.12q5.13-5.16,10.3-10.26C13.7,5.24,15.88,3.06,18.13.94A3,3,0,0,1,22.57,1c2,1.88,3.89,3.86,5.84,5.79s4.12,4.11,6.23,6.11c.58.55.48.88,0,1.35-1.08,1-2.16,2.07-3.17,3.16-.64.68-1.09.77-1.77,0-2.71-3-5.6-5.9-8.52-8.73-.62-.6-1-.77-1.65,0-2,2.42-4.6,4.24-6.74,6.52-1.41,1.5-2.78,3-4.21,4.5-.75.77-.14,1.3.3,1.74,3.49,3.47,7,6.89,10.52,10.36.78.78,1.26.38,1.82-.17"/><path class="cls-1" d="M18.92,23.86a4.56,4.56,0,0,1,0-.64c.19-1.13-.36-1.43-1.38-1.32a9.31,9.31,0,0,1-1.67,0c-1-.08-1.67-.53-1.61-1.7s.6-1.59,1.69-1.61c2.92-.05,2.93-.06,3-2.91,0-1,.35-1.66,1.43-1.72a1.57,1.57,0,0,1,1.87,1.62c0,.17,0,.34,0,.51,0,2.5,0,2.5,2.47,2.51,1.56,0,2.21.51,2.17,1.68s-.79,1.62-2.28,1.62c-2.35,0-2.35,0-2.36,2.37,0,1.51-.55,2.27-1.64,2.28s-1.66-.63-1.66-2.31Z"/><path class="cls-1" d="M58,21.43c-1.55,0-3.1,0-4.64,0-1.17,0-1.66-.49-1.63-1.61s.44-1.54,1.58-1.52c3.09.06,6.18,0,9.27,0,1.12,0,1.8.61,1.7,1.59s-.5,1.58-1.65,1.52C61.06,21.37,59.51,21.43,58,21.43Z"/></g></g></svg>