<svg xmlns="http://www.w3.org/2000/svg" viewBox="0 0 502.5 324.46"><defs><style>.cls-1,.cls-11,.cls-13,.cls-15,.cls-19,.cls-4,.cls-5,.cls-6,.cls-7,.cls-8,.cls-9{fill:none;}.cls-2{fill:#1565c0;}.cls-2,.cls-3{fill-opacity:0.1;fill-rule:evenodd;}.cls-3{fill:#2e7d32;}.cls-4,.cls-5,.cls-9{stroke:#000;}.cls-4,.cls-6,.cls-7,.cls-8,.cls-9{stroke-linecap:round;}.cls-4,.cls-5,.cls-6,.cls-7,.cls-8,.cls-9{stroke-linejoin:round;}.cls-4,.cls-5,.cls-6,.cls-7,.cls-8{stroke-opacity:0.7;}.cls-4,.cls-5,.cls-7,.cls-8{stroke-width:2.5px;}.cls-5{stroke-dasharray:6.5 4;}.cls-6{stroke:#d32f2f;stroke-width:4px;}.cls-7{stroke:#1565c0;}.cls-8{stroke:#2e7d32;}.cls-10,.cls-11,.cls-12,.cls-13,.cls-14,.cls-15,.cls-17,.cls-18,.cls-19{isolation:isolate;font-family:ArialMT, Arial;}.cls-10,.cls-11,.cls-14,.cls-15,.cls-17,.cls-18,.cls-19{font-size:16px;}.cls-10,.cls-11{letter-spacing:-0.06em;}.cls-11,.cls-13,.cls-15,.cls-19{stroke:#fff;stroke-linejoin:bevel;stroke-width:3px;}.cls-12,.cls-13{font-size:14px;}.cls-16,.cls-17{fill:#616161;}.cls-18,.cls-19{letter-spacing:-0.02em;}</style></defs><g id="图层_2" data-name="图层 2"><g id="图层_1-2" data-name="图层 1"><rect class="cls-1" x="6.25" y="6.25" width="490" height="313"/><path class="cls-2" d="M242.19,52.27l-167.95,112,223.93,37.32,168-112Z"/><path class="cls-3" d="M74.24,164.24,92.9,238.88,316.83,276.2l-18.66-74.64Z"/><path class="cls-4" d="M1.25,152.07l500,83.34"/><path class="cls-4" d="M1.25,300,449.34,1.25"/><path class="cls-5" d="M78.67,324.25l53.83-323"/><path class="cls-5" d="M196.86,324.25l53.83-323"/><path class="cls-6" d="M92.9,238.88l168-112"/><path class="cls-4" d="M74.24,164.24l168-112"/><path class="cls-4" d="M298.17,201.56l168-112"/><path class="cls-4" d="M242.19,52.27,466.12,89.59"/><path class="cls-7" d="M242.19,52.27l-167.95,112"/><path class="cls-7" d="M298.17,201.56l168-112"/><path class="cls-7" d="M466.12,89.59,242.19,52.27"/><path class="cls-4" d="M74.24,164.24,92.9,238.88"/><path class="cls-4" d="M298.17,201.56l18.66,74.64"/><path class="cls-4" d="M92.9,238.88,316.83,276.2"/><path class="cls-8" d="M74.24,164.24,92.9,238.88"/><path class="cls-8" d="M92.9,238.88,316.83,276.2"/><path class="cls-8" d="M316.83,276.2l-18.66-74.64"/><path class="cls-8" d="M298.17,201.56,74.24,164.24"/><path d="M100.9,238.88a8,8,0,1,1-8-8A8,8,0,0,1,100.9,238.88Z"/><path class="cls-9" d="M100.9,238.88a8,8,0,1,1-8-8A8,8,0,0,1,100.9,238.88Z"/><text class="cls-10" transform="translate(97.25 260.25)">A</text><text class="cls-11" transform="translate(97.25 260.25)">A</text><text class="cls-10" transform="translate(97.25 260.25)">A</text><text class="cls-12" transform="translate(108.25 267.25)">s</text><text class="cls-13" transform="translate(108.25 267.25)">s</text><text class="cls-12" transform="translate(108.25 267.25)">s</text><path d="M268.85,126.91a8,8,0,1,1-8-8A8,8,0,0,1,268.85,126.91Z"/><path class="cls-9" d="M268.85,126.91a8,8,0,1,1-8-8A8,8,0,0,1,268.85,126.91Z"/><text class="cls-10" transform="translate(279.25 131.25)">A</text><text class="cls-11" transform="translate(279.25 131.25)">A</text><text class="cls-10" transform="translate(279.25 131.25)">A</text><text class="cls-12" transform="translate(290.25 138.25)">t</text><text class="cls-13" transform="translate(290.25 138.25)">t</text><text class="cls-12" transform="translate(290.25 138.25)">t</text><path d="M82.24,164.24a8,8,0,1,1-8-8A8,8,0,0,1,82.24,164.24Z"/><path class="cls-9" d="M82.24,164.24a8,8,0,1,1-8-8A8,8,0,0,1,82.24,164.24Z"/><text class="cls-14" transform="translate(48.25 175.25)">B</text><text class="cls-15" transform="translate(48.25 175.25)">B</text><text class="cls-14" transform="translate(48.25 175.25)">B</text><text class="cls-12" transform="translate(59.25 182.25)">s</text><text class="cls-13" transform="translate(59.25 182.25)">s</text><text class="cls-12" transform="translate(59.25 182.25)">s</text><path d="M306.17,201.56a8,8,0,1,1-8-8A8,8,0,0,1,306.17,201.56Z"/><path class="cls-9" d="M306.17,201.56a8,8,0,1,1-8-8A8,8,0,0,1,306.17,201.56Z"/><text class="cls-14" transform="translate(277.25 224.25)">B</text><text class="cls-15" transform="translate(277.25 224.25)">B</text><text class="cls-14" transform="translate(277.25 224.25)">B</text><text class="cls-12" transform="translate(288.25 231.25)">t</text><text class="cls-13" transform="translate(288.25 231.25)">t</text><text class="cls-12" transform="translate(288.25 231.25)">t</text><path class="cls-16" d="M247.19,52.27a5,5,0,1,1-5-5A5,5,0,0,1,247.19,52.27Z"/><path class="cls-9" d="M247.19,52.27a5,5,0,1,1-5-5A5,5,0,0,1,247.19,52.27Z"/><text class="cls-17" transform="translate(215.25 44.25)">C</text><text class="cls-15" transform="translate(215.25 44.25)">C</text><text class="cls-17" transform="translate(215.25 44.25)">C</text><path class="cls-16" d="M471.12,89.59a5,5,0,1,1-5-5A5,5,0,0,1,471.12,89.59Z"/><path class="cls-9" d="M471.12,89.59a5,5,0,1,1-5-5A5,5,0,0,1,471.12,89.59Z"/><text class="cls-17" transform="translate(470.25 79.25)">D</text><text class="cls-15" transform="translate(470.25 79.25)">D</text><text class="cls-17" transform="translate(470.25 79.25)">D</text><path class="cls-16" d="M321.83,276.2a5,5,0,1,1-5-5A5,5,0,0,1,321.83,276.2Z"/><path class="cls-9" d="M321.83,276.2a5,5,0,1,1-5-5A5,5,0,0,1,321.83,276.2Z"/><text class="cls-17" transform="translate(321.25 266.25)">E</text><text class="cls-15" transform="translate(321.25 266.25)">E</text><text class="cls-17" transform="translate(321.25 266.25)">E</text><path class="cls-16" d="M109.5,169.28a5,5,0,1,1-5-5A5,5,0,0,1,109.5,169.28Z"/><path class="cls-9" d="M109.5,169.28a5,5,0,1,1-5-5A5,5,0,0,1,109.5,169.28Z"/><text class="cls-17" transform="translate(119.25 159.25)">M</text><text class="cls-15" transform="translate(119.25 159.25)">M</text><text class="cls-17" transform="translate(119.25 159.25)">M</text><path class="cls-6" d="M74.24,164.24l223.93,37.32"/><path d="M186.74,181.65a8,8,0,1,1-8-8A8,8,0,0,1,186.74,181.65Z"/><path class="cls-9" d="M186.74,181.65a8,8,0,1,1-8-8A8,8,0,0,1,186.74,181.65Z"/><text class="cls-18" transform="translate(185.25 202.25)">P</text><text class="cls-19" transform="translate(185.25 202.25)">P</text><text class="cls-18" transform="translate(185.25 202.25)">P</text><path class="cls-16" d="M224.49,188.45a5,5,0,1,1-5-5A5,5,0,0,1,224.49,188.45Z"/><path class="cls-9" d="M224.49,188.45a5,5,0,1,1-5-5A5,5,0,0,1,224.49,188.45Z"/><text class="cls-17" transform="translate(233.25 181.25)">N</text><text class="cls-15" transform="translate(233.25 181.25)">N</text><text class="cls-17" transform="translate(233.25 181.25)">N</text></g></g></svg>