<?xml version="1.0" encoding="UTF-8" standalone="no"?>
<svg
   xmlns:dc="http://purl.org/dc/elements/1.1/"
   xmlns:cc="http://creativecommons.org/ns#"
   xmlns:rdf="http://www.w3.org/1999/02/22-rdf-syntax-ns#"
   xmlns:svg="http://www.w3.org/2000/svg"
   xmlns="http://www.w3.org/2000/svg"
   version="1.1"
   id="svg2"
   xml:space="preserve"
   width="298.45334"
   height="354.76001"
   viewBox="0 0 298.45334 354.76001"><metadata
     id="metadata8"><rdf:RDF><cc:Work
         rdf:about=""><dc:format>image/svg+xml</dc:format><dc:type
           rdf:resource="http://purl.org/dc/dcmitype/StillImage" /></cc:Work></rdf:RDF></metadata><defs
     id="defs6" /><g
     id="g10"
     transform="matrix(1.3333333,0,0,-1.3333333,0,354.76)"><g
       id="g12"
       transform="translate(72,194.066)"><g
         id="g14"
         transform="translate(-73.181,-206.876)"><g
           id="g16"><g
             id="g18"><g
               id="g20"><g
                 id="g22"><g
                   id="g24"
                   transform="scale(-1)"><g
                     id="g26" /><g
                     id="g28"
                     transform="rotate(180,-36.5905,-103.438)"><g
                       id="g30" /><g
                       id="g32"
                       transform="translate(42.52,198.428)" /><g
                       id="g34"
                       transform="translate(-73.181,-206.876)" /></g></g></g></g><g
               id="g36"><g
                 id="g38"><g
                   id="g40"
                   transform="scale(-1)"><g
                     id="g42" /><g
                     id="g44"
                     transform="rotate(180,-36.5905,-103.438)"><g
                       id="g46" /><g
                       id="g48"
                       transform="translate(28.347,113.387)" /><g
                       id="g50"
                       transform="translate(-73.181,-206.876)" /></g></g></g></g><g
               id="g52"><g
                 id="g54"><g
                   id="g56"
                   transform="scale(-1)"><g
                     id="g58" /><g
                     id="g60"
                     transform="rotate(180,-36.5905,-103.438)"><g
                       id="g62" /><g
                       id="g64"
                       transform="translate(85.04,70.867)" /><g
                       id="g66"
                       transform="translate(-73.181,-206.876)" /></g></g></g></g><g
               id="g68"><g
                 id="g70"><g
                   id="g72"
                   transform="scale(-1)"><g
                     id="g74" /><g
                     id="g76"
                     transform="rotate(180,-36.5905,-103.438)"><g
                       id="g78" /><g
                       id="g80"
                       transform="translate(178.585,59.528)" /><g
                       id="g82"
                       transform="translate(-73.181,-206.876)" /></g></g></g></g><g
               id="g84"><g
                 id="g86"><g
                   id="g88"
                   transform="scale(-1)"><g
                     id="g90" /><g
                     id="g92"
                     transform="rotate(180,-36.5905,-103.438)"><g
                       id="g94" /><g
                       id="g96"
                       transform="translate(198.428,93.545)" /><g
                       id="g98"
                       transform="translate(-73.181,-206.876)" /></g></g></g></g><g
               id="g100"><g
                 id="g102"><g
                   id="g104"
                   transform="scale(-1)"><g
                     id="g106" /><g
                     id="g108"
                     transform="rotate(180,-36.5905,-103.438)"><g
                       id="g110" /><g
                       id="g112"
                       transform="translate(170.081,170.081)" /><g
                       id="g114"
                       transform="translate(-73.181,-206.876)" /></g></g></g></g><g
               id="g116"><g
                 id="g118"><g
                   id="g120"
                   transform="scale(-1)"><g
                     id="g122" /><g
                     id="g124"
                     transform="rotate(180,-36.5905,-103.438)"><g
                       id="g126" /><g
                       id="g128"
                       transform="translate(99.214,240.948)" /><g
                       id="g130"
                       transform="translate(-73.181,-206.876)" /></g></g></g></g><path
               d="m 48.18947,198.42766 c 0,3.13109 -2.53818,5.66928 -5.66927,5.66928 -3.13109,0 -5.66928,-2.53819 -5.66928,-5.66928 0,-3.13109 2.53819,-5.66927 5.66928,-5.66927 3.13109,0 5.66927,2.53818 5.66927,5.66927 z M 34.01608,113.38724 c 0,3.13109 -2.53819,5.66926 -5.66928,5.66926 -3.13109,0 -5.66926,-2.53817 -5.66926,-5.66926 0,-3.13111 2.53817,-5.66928 5.66926,-5.66928 3.13109,0 5.66928,2.53817 5.66928,5.66928 z M 90.7097,70.867 c 0,3.1311 -2.53819,5.66929 -5.66928,5.66929 -3.13109,0 -5.66927,-2.53819 -5.66927,-5.66929 0,-3.13108 2.53818,-5.66926 5.66927,-5.66926 3.13109,0 5.66928,2.53818 5.66928,5.66926 z m 93.54454,-11.33854 c 0,3.13109 -2.53818,5.66928 -5.66926,5.66928 -3.13109,0 -5.66928,-2.53819 -5.66928,-5.66928 0,-3.13109 2.53819,-5.66927 5.66928,-5.66927 3.13108,0 5.66926,2.53818 5.66926,5.66927 z m 19.8427,34.01608 c 0,3.13109 -2.53819,5.66928 -5.66928,5.66928 -3.13109,0 -5.66927,-2.53819 -5.66927,-5.66928 0,-3.13109 2.53818,-5.66927 5.66927,-5.66927 3.13109,0 5.66928,2.53818 5.66928,5.66927 z m -28.34682,76.53632 c 0,3.13108 -2.53818,5.66926 -5.66926,5.66926 -3.13109,0 -5.66928,-2.53818 -5.66928,-5.66926 0,-3.13109 2.53819,-5.66928 5.66928,-5.66928 3.13108,0 5.66926,2.53819 5.66926,5.66928 z m -70.86703,70.86702 c 0,3.13108 -2.53818,5.66926 -5.66927,5.66926 -3.13109,0 -5.66928,-2.53818 -5.66928,-5.66926 0,-3.13111 2.53819,-5.66928 5.66928,-5.66928 3.13109,0 5.66927,2.53817 5.66927,5.66928 z"
               style="fill:#000000;fill-opacity:1;fill-rule:nonzero;stroke:#000000;stroke-width:0.3985;stroke-linecap:butt;stroke-linejoin:miter;stroke-miterlimit:10;stroke-dasharray:none;stroke-opacity:1"
               id="path132" /><g
               id="g134"><path
                 d="M 41.93425,194.90784 28.93282,116.90706 m 2.9338,-6.15781 49.65398,-37.24394 m 7.03964,-3.06479 86.50492,-10.48605 m 5.57211,3.09381 15.73767,26.97644 m 0.74939,7.03964 -25.73999,69.49668 m -4.8233,7.03785 -63.82869,63.82916 M 95.694,238.30989 46.04002,201.06596"
                 style="fill:none;stroke:#000000;stroke-width:1.59404;stroke-linecap:butt;stroke-linejoin:miter;stroke-miterlimit:10;stroke-dasharray:none;stroke-opacity:1"
                 id="path136" /></g><g
               id="g138"><path
                 d="M 55.55992,278.08212 16.15787,41.66983 m 128.97764,-21.2601 39.11873,236.12897 m 0.85037,-242.93238 39.11875,236.12898"
                 style="fill:none;stroke:#ff0000;stroke-width:1.59404;stroke-linecap:butt;stroke-linejoin:miter;stroke-miterlimit:10;stroke-dasharray:none;stroke-opacity:1"
                 id="path140" /></g><g
               id="g142"><path
                 d="M 46.04002,197.64606 166.56104,170.8617 M 31.86662,114.794 166.56104,168.67499"
                 style="fill:none;stroke:#0000ff;stroke-width:1.59404;stroke-linecap:butt;stroke-linejoin:miter;stroke-miterlimit:10;stroke-dasharray:2.98883, 2.98883;stroke-dashoffset:0;stroke-opacity:1"
                 id="path144" /></g><g
               id="g146"><path
                 d="M 46.04002,196.06226 194.90784,95.90791 M 31.86662,112.97658 194.90784,93.95422"
                 style="fill:none;stroke:#bf8040;stroke-width:1.59404;stroke-linecap:butt;stroke-linejoin:miter;stroke-miterlimit:10;stroke-dasharray:2.98883, 2.98883;stroke-dashoffset:0;stroke-opacity:1"
                 id="path148" /></g><g
               id="g150"><g
                 id="g152"><g
                   id="g154"
                   transform="scale(-1)"><g
                     id="g156" /><g
                     id="g158"
                     transform="rotate(180,-36.5905,-103.438)"><g
                       id="g160" /><g
                       id="g162"
                       transform="translate(19.194,198.215)"><text
                         transform="matrix(1,0,0,-1,-73.181,-206.876)"
                         style="font-style:italic;font-variant:normal;font-weight:normal;font-size:17.2154px;font-family:CMMI12;-inkscape-font-specification:CMMI12;writing-mode:lr-tb;fill:#000000;fill-opacity:1;fill-rule:nonzero;stroke:none"
                         id="text166"><tspan
                           x="0"
                           y="0"
                           id="tspan164">A</tspan></text></g><g
                       id="g168"
                       transform="translate(-73.181,-206.876)" /></g></g></g></g><g
               id="g170"><g
                 id="g172"><g
                   id="g174"
                   transform="scale(-1)"><g
                     id="g176" /><g
                     id="g178"
                     transform="rotate(180,-36.5905,-103.438)"><g
                       id="g180" /><g
                       id="g182"
                       transform="translate(4.501,99.001)"><text
                         transform="matrix(1,0,0,-1,-73.181,-206.876)"
                         style="font-style:italic;font-variant:normal;font-weight:normal;font-size:17.2154px;font-family:CMMI12;-inkscape-font-specification:CMMI12;writing-mode:lr-tb;fill:#000000;fill-opacity:1;fill-rule:nonzero;stroke:none"
                         id="text186"><tspan
                           x="0"
                           y="0"
                           id="tspan184">B</tspan></text></g><g
                       id="g188"
                       transform="translate(-73.181,-206.876)" /></g></g></g></g><g
               id="g190"><g
                 id="g192"><g
                   id="g194"
                   transform="scale(-1)"><g
                     id="g196" /><g
                     id="g198"
                     transform="rotate(180,-36.5905,-103.438)"><g
                       id="g200" /><g
                       id="g202"
                       transform="translate(208.63,100.914)"><text
                         transform="matrix(1,0,0,-1,-73.181,-206.876)"
                         style="font-style:italic;font-variant:normal;font-weight:normal;font-size:17.2154px;font-family:CMMI12;-inkscape-font-specification:CMMI12;writing-mode:lr-tb;fill:#000000;fill-opacity:1;fill-rule:nonzero;stroke:none"
                         id="text206"><tspan
                           x="0"
                           y="0"
                           id="tspan204">j</tspan></text></g><g
                       id="g208"
                       transform="translate(-73.181,-206.876)" /></g></g></g></g><g
               id="g210"><g
                 id="g212"><g
                   id="g214"
                   transform="scale(-1)"><g
                     id="g216" /><g
                     id="g218"
                     transform="rotate(180,-36.5905,-103.438)"><g
                       id="g220" /><g
                       id="g222"
                       transform="translate(174.451,180.946)"><text
                         transform="matrix(1,0,0,-1,-73.181,-206.876)"
                         style="font-style:italic;font-variant:normal;font-weight:normal;font-size:14.3462px;font-family:CMMI12;-inkscape-font-specification:CMMI12;writing-mode:lr-tb;fill:#000000;fill-opacity:1;fill-rule:nonzero;stroke:none"
                         id="text226"><tspan
                           x="0"
                           y="0"
                           id="tspan224">j</tspan></text><text
                         transform="matrix(1,0,0,-1,-63.374,-206.876)"
                         style="font-variant:normal;font-weight:normal;font-size:14.3462px;font-family:CMR12;-inkscape-font-specification:CMR12;writing-mode:lr-tb;fill:#000000;fill-opacity:1;fill-rule:nonzero;stroke:none"
                         id="text230"><tspan
                           x="0 14.102315"
                           y="0"
                           id="tspan228">+1</tspan></text></g><g
                       id="g232"
                       transform="translate(-73.181,-206.876)" /></g></g></g></g></g></g></g></g></g></svg>
