<svg xmlns="http://www.w3.org/2000/svg" xmlns:xlink="http://www.w3.org/1999/xlink" width="298.453" height="354.76" viewBox="0 0 223.84 266.07"><path d="M47.008 80.452a5.67 5.67 0 1 0-11.338 0 5.67 5.67 0 0 0 11.338 0zm-14.173 85.04a5.67 5.67 0 1 0-11.338 0 5.67 5.67 0 0 0 11.338 0zm56.694 42.521a5.67 5.67 0 1 0-11.339 0 5.67 5.67 0 0 0 11.339 0zm93.544 11.339a5.67 5.67 0 1 0-11.338 0 5.67 5.67 0 0 0 11.338 0zm19.843-34.017a5.67 5.67 0 1 0-11.339 0 5.67 5.67 0 0 0 11.339 0zM174.569 108.8a5.67 5.67 0 1 0-11.338 0 5.67 5.67 0 0 0 11.338 0zm-70.867-70.867a5.67 5.67 0 1 0-11.338 0 5.67 5.67 0 0 0 11.338 0zm-5.67 0"/><path stroke-width=".399" stroke-miterlimit="10" fill="none" stroke="#000" d="M47.008 80.452a5.67 5.67 0 1 0-11.338 0 5.67 5.67 0 0 0 11.338 0zm-14.173 85.04a5.67 5.67 0 1 0-11.338 0 5.67 5.67 0 0 0 11.338 0zm56.694 42.521a5.67 5.67 0 1 0-11.339 0 5.67 5.67 0 0 0 11.339 0zm93.544 11.339a5.67 5.67 0 1 0-11.338 0 5.67 5.67 0 0 0 11.338 0zm19.843-34.017a5.67 5.67 0 1 0-11.339 0 5.67 5.67 0 0 0 11.339 0zM174.569 108.8a5.67 5.67 0 1 0-11.338 0 5.67 5.67 0 0 0 11.338 0zm-70.867-70.867a5.67 5.67 0 1 0-11.338 0 5.67 5.67 0 0 0 11.338 0zm-5.67 0"/><path stroke-width="1.594" stroke-miterlimit="10" fill="none" stroke="#000" d="m40.753 83.972-13.001 78m2.934 6.159 49.654 37.244m7.04 3.064 86.504 10.487m5.572-3.094 15.738-26.977m.75-7.04-25.74-69.496m-4.824-7.038-63.829-63.83m-7.038-.88L44.859 77.813"/><path stroke-width="1.594" stroke-miterlimit="10" fill="none" stroke="red" d="M54.379.798 14.977 237.21m128.978 21.26 39.118-236.129m.85 242.933 39.12-236.13"/><path stroke-width="1.594" stroke-dasharray="2.98883,2.98883" stroke-miterlimit="10" fill="none" stroke="#00f" d="m44.859 81.234 120.521 26.784M30.686 164.086l134.694-53.881"/><path stroke-width="1.594" stroke-dasharray="2.98883,2.98883" stroke-miterlimit="10" fill="none" stroke="#bf8040" d="m44.859 82.818 148.868 100.154M30.686 165.903l163.04 19.023"/><symbol id="a"><path d="M.136.111C.101.052.067.032.019.029.008.028 0 .028 0 .01 0 .004.005 0 .012 0l.081.002L.182 0C.188 0 .2 0 .2.019c0 .009-.008.01-.014.01C.163.031.144.039.144.063c0 .014.006.025.019.047l.076.126h.255L.496.21A3.27 3.27 0 0 0 .511.061C.511.031.46.029.444.029c-.011 0-.022 0-.022-.018C.422 0 .431 0 .437 0l.054.002h.057C.609.002.653 0 .654 0c.007 0 .018 0 .018.019 0 .01-.009.01-.024.01-.055 0-.056.009-.059.039L.528.692C.526.712.522.714.511.714.501.714.495.712.486.697L.136.111m.12.154.201.336.034-.336H.256z"/></symbol><use xlink:href="#a" transform="matrix(17.2154 0 0 -17.2154 18.598 80.665)"/><symbol id="b"><path d="M.318.615C.327.652.331.654.37.654H.5C.613.654.613.558.613.549.613.468.532.365.4.365H.256l.062.25M.487.357c.109.02.208.096.208.188 0 .078-.069.138-.182.138H.192c-.019 0-.028 0-.028-.019 0-.01.009-.01.024-.01.061 0 .061-.008.061-.019 0-.002 0-.008-.004-.023L.11.074C.101.039.099.029.029.029.01.029 0 .029 0 .011 0 0 .006 0 .026 0h.343C.522 0 .64.116.64.217c0 .082-.072.132-.153.14M.345.029H.21L.188.03C.177.031.176.033.176.041c0 .007.002.013.004.022l.07.282h.188c.118 0 .118-.11.118-.118A.209.209 0 0 0 .345.029z"/></symbol><use xlink:href="#b" transform="matrix(17.2154 0 0 -17.2154 4.146 179.879)"/><symbol id="c"><path d="M.363.521c.004.016.004.03.004.034 0 .058-.043.09-.088.09C.178.645.124.499.124.492c0-.005.004-.009.01-.009.008 0 .009.004.014.014.04.097.09.128.128.128.021 0 .032-.011.032-.046C.308.555.305.545.301.527L.206.15C.187.076.14.02.085.02.081.02.06.02.041.03c.024.005.043.024.043.048C.084.094.072.11.05.11A.051.051 0 0 1 0 .058C0 .017.044 0 .085 0A.2.2 0 0 1 .27.151l.093.37m.041.307c0 .025-.021.033-.033.033-.027 0-.05-.026-.05-.048C.321.798.333.78.355.78c.023 0 .049.022.049.048z"/></symbol><use xlink:href="#c" transform="matrix(17.2154 0 0 -17.2154 204.534 181.478)"/><symbol id="d"><path d="M.197.641c0 .023 0 .024-.02.024C.153.638.103.601 0 .601V.572c.023 0 .073 0 .128.026V.077C.128.041.125.029.037.029H.006V0C.033.002.13.002.163.002S.292.002.319 0v.029H.288C.2.029.197.041.197.077v.564z"/></symbol><use xlink:href="#d" transform="matrix(11.9552 0 0 -11.9552 212.82 180.548)"/><use xlink:href="#c" transform="matrix(17.2154 0 0 -17.2154 176.187 104.942)"/><symbol id="e"><path d="M.391.168H.369C.366.151.358.096.348.08.341.071.284.071.254.071H.069c.027.023.088.087.114.111.152.14.208.192.208.291C.391.588.3.665.184.665A.185.185 0 0 1 0 .48C0 .429.044.429.047.429c.021 0 .047.015.047.047a.045.045 0 0 1-.047.047L.033.522C.052.59.106.636.171.636.256.636.308.565.308.473.308.388.259.314.202.25L0 .024V0h.365l.026.168z"/></symbol><use xlink:href="#e" transform="matrix(11.9552 0 0 -11.9552 183.97 104.012)"/></svg>