<?xml version="1.0" encoding="UTF-8" standalone="no"?>
<svg
   xmlns:dc="http://purl.org/dc/elements/1.1/"
   xmlns:cc="http://creativecommons.org/ns#"
   xmlns:rdf="http://www.w3.org/1999/02/22-rdf-syntax-ns#"
   xmlns:svg="http://www.w3.org/2000/svg"
   xmlns="http://www.w3.org/2000/svg"
   version="1.1"
   id="svg2"
   xml:space="preserve"
   width="134.01733"
   height="104.756"
   viewBox="0 0 134.01733 104.756"><metadata
     id="metadata8"><rdf:RDF><cc:Work
         rdf:about=""><dc:format>image/svg+xml</dc:format><dc:type
           rdf:resource="http://purl.org/dc/dcmitype/StillImage" /></cc:Work></rdf:RDF></metadata><defs
     id="defs6"><clipPath
       clipPathUnits="userSpaceOnUse"
       id="clipPath22"><path
         d="m 247.596,381.438 h 100.513 v 78.567 H 247.596 Z"
         id="path20" /></clipPath></defs><g
     id="g10"
     transform="matrix(1.3333333,0,0,-1.3333333,4.3520002e-7,104.75602)"><g
       id="g12"><g
         id="g14"
         transform="translate(-247.596,-381.438)"><g
           id="g16"><g
             id="g18"
             clip-path="url(#clipPath22)"><g
               id="g24"><path
                 d="m 326.334,391.558 c 5.823,-1.853 11.933,4.17 16.062,17.444 4.129,13.274 6.277,33.801 1.649,43.192 -4.627,9.392 -16.031,7.649 -20.659,4.164 -4.629,-3.485 -2.482,-8.713 2.992,-14.389 5.473,-5.676 14.273,-11.802 12.005,-16.728 -2.268,-4.925 -15.604,-8.651 -19.505,-15.378 -3.901,-6.726 1.634,-16.453 7.456,-18.305 z"
                 style="fill:#cccccc;fill-opacity:1;fill-rule:evenodd;stroke:#000000;stroke-width:0.4;stroke-linecap:butt;stroke-linejoin:round;stroke-miterlimit:10;stroke-dasharray:none;stroke-opacity:1"
                 id="path26" /></g><g
               id="g28"
               transform="translate(251.851,381.438)"><g
                 id="g30"
                 transform="translate(0,-787.795)"><text
                   transform="matrix(1,0,0,-1,0,787.92)"
                   style="font-variant:normal;font-size:8.9664px;font-family:'Nimbus Roman';-inkscape-font-specification:NimbusRomNo9L-Regu;writing-mode:lr-tb;fill:#000000;fill-opacity:1;fill-rule:nonzero;stroke:none"
                   id="text34"><tspan
                     x="0 3.9810815 8.464282 12.588825 16.937531 20.784115"
                     y="0"
                     id="tspan32">convex</tspan></text></g></g><g
               id="g36"
               transform="translate(309.141,381.438)"><g
                 id="g38"
                 transform="translate(0,-786.683)"><text
                   transform="matrix(1,0,0,-1,0,786.808)"
                   style="font-variant:normal;font-size:8.9664px;font-family:'Nimbus Roman';-inkscape-font-specification:NimbusRomNo9L-Regu;writing-mode:lr-tb;fill:#000000;fill-opacity:1;fill-rule:nonzero;stroke:none"
                   id="text42"><tspan
                     x="0 4.4832001 8.9664001 13.700659 17.681742 22.16494 26.289484 30.638189 34.484776"
                     y="0"
                     id="tspan40">notconvex</tspan></text></g></g><g
               id="g44"><path
                 d="m 262.668,391.831 c 5.86,-1.73 13.244,1.837 17.636,13.355 4.392,11.517 5.79,30.986 2.545,42.038 -3.246,11.051 -11.137,13.686 -17.779,9.169 -6.643,-4.517 -12.038,-16.186 -14.652,-25.507 -2.614,-9.322 -2.446,-16.296 -0.195,-23.297 2.251,-7.001 6.585,-14.028 12.445,-15.758 z"
                 style="fill:#cccccc;fill-opacity:1;fill-rule:evenodd;stroke:#000000;stroke-width:0.4;stroke-linecap:butt;stroke-linejoin:round;stroke-miterlimit:10;stroke-dasharray:none;stroke-opacity:1"
                 id="path46" /></g><g
               id="g48"><path
                 d="m 272.414,408.32 c 0,1.049 -0.851,1.9 -1.9,1.9 -1.049,0 -1.9,-0.851 -1.9,-1.9 0,-1.05 0.851,-1.9 1.9,-1.9 1.049,0 1.9,0.85 1.9,1.9 z"
                 style="fill:#000000;fill-opacity:1;fill-rule:evenodd;stroke:#000000;stroke-width:0.76;stroke-linecap:butt;stroke-linejoin:round;stroke-miterlimit:10;stroke-dasharray:none;stroke-opacity:1"
                 id="path50" /></g><g
               id="g52"><path
                 d="m 271.074,447.436 c 0,1.049 -0.851,1.9 -1.9,1.9 -1.049,0 -1.9,-0.851 -1.9,-1.9 0,-1.049 0.851,-1.9 1.9,-1.9 1.049,0 1.9,0.851 1.9,1.9 z"
                 style="fill:#000000;fill-opacity:1;fill-rule:evenodd;stroke:#000000;stroke-width:0.76;stroke-linecap:butt;stroke-linejoin:round;stroke-miterlimit:10;stroke-dasharray:none;stroke-opacity:1"
                 id="path54" /></g><g
               id="g56"><path
                 d="m 270.514,408.32 -1.34,39.116 v 0"
                 style="fill:none;stroke:#000000;stroke-width:0.4;stroke-linecap:butt;stroke-linejoin:round;stroke-miterlimit:10;stroke-dasharray:none;stroke-opacity:1"
                 id="path58" /></g><g
               id="g60"
               transform="translate(257.912,423.282)"><g
                 id="g62"
                 transform="translate(0,7.025)"><path
                   d="M 0,0 H 9.639"
                   style="fill:none;stroke:#000000;stroke-width:0.359;stroke-linecap:butt;stroke-linejoin:round;stroke-miterlimit:10;stroke-dasharray:none;stroke-opacity:1"
                   id="path64" /></g><g
                 id="g66"
                 transform="translate(0,-784.437)"><text
                   transform="matrix(1,0,0,-1,0.672,786.311)"
                   style="font-variant:normal;font-size:8.9664px;font-family:'Nimbus Roman';-inkscape-font-specification:NimbusRomNo9L-ReguItal;writing-mode:lr-tb;fill:#000000;fill-opacity:1;fill-rule:nonzero;stroke:none"
                   id="text70"><tspan
                     x="0 4.4832001"
                     y="0"
                     id="tspan68">pq</tspan></text></g></g><g
               id="g72"
               transform="translate(267.755,399.42)"><g
                 id="g74"
                 transform="translate(0,-786.275)"><text
                   transform="matrix(1,0,0,-1,0.672,788.104)"
                   style="font-variant:normal;font-size:8.9664px;font-family:'Nimbus Roman';-inkscape-font-specification:NimbusRomNo9L-ReguItal;writing-mode:lr-tb;fill:#000000;fill-opacity:1;fill-rule:nonzero;stroke:none"
                   id="text78"><tspan
                     x="0"
                     y="0"
                     id="tspan76">p</tspan></text></g></g><g
               id="g80"
               transform="translate(267.051,450.562)"><g
                 id="g82"
                 transform="translate(0,-786.23)"><text
                   transform="matrix(1,0,0,-1,0,788.104)"
                   style="font-variant:normal;font-size:8.9664px;font-family:'Nimbus Roman';-inkscape-font-specification:NimbusRomNo9L-ReguItal;writing-mode:lr-tb;fill:#000000;fill-opacity:1;fill-rule:nonzero;stroke:none"
                   id="text86"><tspan
                     x="0"
                     y="0"
                     id="tspan84">q</tspan></text></g></g><g
               id="g88"><path
                 d="m 328.996,406.319 c 0,1.05 -0.85,1.9 -1.9,1.9 -1.049,0 -1.9,-0.85 -1.9,-1.9 0,-1.049 0.851,-1.9 1.9,-1.9 1.05,0 1.9,0.851 1.9,1.9 z"
                 style="fill:#000000;fill-opacity:1;fill-rule:evenodd;stroke:#000000;stroke-width:0.76;stroke-linecap:butt;stroke-linejoin:round;stroke-miterlimit:10;stroke-dasharray:none;stroke-opacity:1"
                 id="path90" /></g><g
               id="g92"><path
                 d="m 336.765,446.771 c 0,1.049 -0.851,1.9 -1.9,1.9 -1.05,0 -1.9,-0.851 -1.9,-1.9 0,-1.049 0.85,-1.9 1.9,-1.9 1.049,0 1.9,0.851 1.9,1.9 z"
                 style="fill:#000000;fill-opacity:1;fill-rule:evenodd;stroke:#000000;stroke-width:0.76;stroke-linecap:butt;stroke-linejoin:round;stroke-miterlimit:10;stroke-dasharray:none;stroke-opacity:1"
                 id="path94" /></g><g
               id="g96"
               transform="translate(318.993,423.353)"><g
                 id="g98"
                 transform="translate(0,7.025)"><path
                   d="M 0,0 H 9.639"
                   style="fill:none;stroke:#000000;stroke-width:0.359;stroke-linecap:butt;stroke-linejoin:round;stroke-miterlimit:10;stroke-dasharray:none;stroke-opacity:1"
                   id="path100" /></g><g
                 id="g102"
                 transform="translate(0,-784.437)"><text
                   transform="matrix(1,0,0,-1,0.672,786.311)"
                   style="font-variant:normal;font-size:8.9664px;font-family:'Nimbus Roman';-inkscape-font-specification:NimbusRomNo9L-ReguItal;writing-mode:lr-tb;fill:#000000;fill-opacity:1;fill-rule:nonzero;stroke:none"
                   id="text106"><tspan
                     x="0 4.4832001"
                     y="0"
                     id="tspan104">pq</tspan></text></g></g><g
               id="g108"
               transform="translate(324.852,396.675)"><g
                 id="g110"
                 transform="translate(0,-786.275)"><text
                   transform="matrix(1,0,0,-1,0.672,788.104)"
                   style="font-variant:normal;font-size:8.9664px;font-family:'Nimbus Roman';-inkscape-font-specification:NimbusRomNo9L-ReguItal;writing-mode:lr-tb;fill:#000000;fill-opacity:1;fill-rule:nonzero;stroke:none"
                   id="text114"><tspan
                     x="0"
                     y="0"
                     id="tspan112">p</tspan></text></g></g><g
               id="g116"
               transform="translate(332.732,450.363)"><g
                 id="g118"
                 transform="translate(0,-786.23)"><text
                   transform="matrix(1,0,0,-1,0,788.104)"
                   style="font-variant:normal;font-size:8.9664px;font-family:'Nimbus Roman';-inkscape-font-specification:NimbusRomNo9L-ReguItal;writing-mode:lr-tb;fill:#000000;fill-opacity:1;fill-rule:nonzero;stroke:none"
                   id="text122"><tspan
                     x="0"
                     y="0"
                     id="tspan120">q</tspan></text></g></g><g
               id="g124"><path
                 d="m 334.865,446.771 -7.769,-40.452"
                 style="fill:none;stroke:#000000;stroke-width:0.4;stroke-linecap:butt;stroke-linejoin:round;stroke-miterlimit:10;stroke-dasharray:none;stroke-opacity:1"
                 id="path126" /></g></g></g></g></g></g></svg>
