<?xml version="1.0" encoding="UTF-8"?>
<svg xmlns="http://www.w3.org/2000/svg" xmlns:xlink="http://www.w3.org/1999/xlink" width="98.413pt" height="80.493pt" viewBox="0 0 98.413 80.493" version="1.1">
<g id="surface1">
<path style="fill-rule:evenodd;fill:rgb(79.998779%,79.998779%,79.998779%);fill-opacity:1;stroke-width:0.4;stroke-linecap:butt;stroke-linejoin:round;stroke:rgb(0%,0%,0%);stroke-opacity:1;stroke-miterlimit:10;" d="M 262.778375 412.094656 L 272.07525 436.758719 L 284.149469 444.266531 L 310.07525 440.946219 L 322.860406 430.282156 L 327.247125 415.118094 L 314.083062 395.911063 L 283.368219 394.899344 L 269.9815 402.219656 L 262.778375 412.094656 " transform="matrix(1,0,0,-1,-248.294,461.247)"/>
<path style="fill-rule:evenodd;fill:rgb(0%,0%,0%);fill-opacity:1;stroke-width:0.76;stroke-linecap:butt;stroke-linejoin:round;stroke:rgb(0%,0%,0%);stroke-opacity:1;stroke-miterlimit:10;" d="M 264.680719 412.094656 C 264.680719 413.141531 263.829156 413.993094 262.778375 413.993094 C 261.7315 413.993094 260.879937 413.141531 260.879937 412.094656 C 260.879937 411.043875 261.7315 410.192313 262.778375 410.192313 C 263.829156 410.192313 264.680719 411.043875 264.680719 412.094656 Z M 264.680719 412.094656 " transform="matrix(1,0,0,-1,-248.294,461.247)"/>
<path style="fill-rule:evenodd;fill:rgb(0%,0%,0%);fill-opacity:1;stroke-width:0.76;stroke-linecap:butt;stroke-linejoin:round;stroke:rgb(0%,0%,0%);stroke-opacity:1;stroke-miterlimit:10;" d="M 273.973687 436.758719 C 273.973687 437.805594 273.126031 438.657156 272.07525 438.657156 C 271.024469 438.657156 270.176812 437.805594 270.176812 436.758719 C 270.176812 435.707938 271.024469 434.856375 272.07525 434.856375 C 273.126031 434.856375 273.973687 435.707938 273.973687 436.758719 Z M 273.973687 436.758719 " transform="matrix(1,0,0,-1,-248.294,461.247)"/>
<path style="fill-rule:evenodd;fill:rgb(0%,0%,0%);fill-opacity:1;stroke-width:0.76;stroke-linecap:butt;stroke-linejoin:round;stroke:rgb(0%,0%,0%);stroke-opacity:1;stroke-miterlimit:10;" d="M 286.047906 444.266531 C 286.047906 445.313406 285.20025 446.164969 284.149469 446.164969 C 283.098687 446.164969 282.247125 445.313406 282.247125 444.266531 C 282.247125 443.21575 283.098687 442.364188 284.149469 442.364188 C 285.20025 442.364188 286.047906 443.21575 286.047906 444.266531 Z M 286.047906 444.266531 " transform="matrix(1,0,0,-1,-248.294,461.247)"/>
<path style="fill-rule:evenodd;fill:rgb(0%,0%,0%);fill-opacity:1;stroke-width:0.76;stroke-linecap:butt;stroke-linejoin:round;stroke:rgb(0%,0%,0%);stroke-opacity:1;stroke-miterlimit:10;" d="M 294.278375 436.860281 C 294.278375 437.911063 293.426812 438.762625 292.376031 438.762625 C 291.329156 438.762625 290.477594 437.911063 290.477594 436.860281 C 290.477594 435.813406 291.329156 434.961844 292.376031 434.961844 C 293.426812 434.961844 294.278375 435.813406 294.278375 436.860281 Z M 294.278375 436.860281 " transform="matrix(1,0,0,-1,-248.294,461.247)"/>
<path style="fill-rule:evenodd;fill:rgb(0%,0%,0%);fill-opacity:1;stroke-width:0.76;stroke-linecap:butt;stroke-linejoin:round;stroke:rgb(0%,0%,0%);stroke-opacity:1;stroke-miterlimit:10;" d="M 302.883844 422.610281 C 302.883844 423.661063 302.036187 424.512625 300.985406 424.512625 C 299.934625 424.512625 299.083062 423.661063 299.083062 422.610281 C 299.083062 421.563406 299.934625 420.711844 300.985406 420.711844 C 302.036187 420.711844 302.883844 421.563406 302.883844 422.610281 Z M 302.883844 422.610281 " transform="matrix(1,0,0,-1,-248.294,461.247)"/>
<path style="fill-rule:evenodd;fill:rgb(0%,0%,0%);fill-opacity:1;stroke-width:0.76;stroke-linecap:butt;stroke-linejoin:round;stroke:rgb(0%,0%,0%);stroke-opacity:1;stroke-miterlimit:10;" d="M 304.610406 398.711844 C 304.610406 399.758719 303.758844 400.610281 302.708062 400.610281 C 301.661187 400.610281 300.809625 399.758719 300.809625 398.711844 C 300.809625 397.661063 301.661187 396.8095 302.708062 396.8095 C 303.758844 396.8095 304.610406 397.661063 304.610406 398.711844 Z M 304.610406 398.711844 " transform="matrix(1,0,0,-1,-248.294,461.247)"/>
<path style="fill-rule:evenodd;fill:rgb(0%,0%,0%);fill-opacity:1;stroke-width:0.76;stroke-linecap:butt;stroke-linejoin:round;stroke:rgb(0%,0%,0%);stroke-opacity:1;stroke-miterlimit:10;" d="M 271.883844 402.219656 C 271.883844 403.270438 271.032281 404.118094 269.9815 404.118094 C 268.934625 404.118094 268.083062 403.270438 268.083062 402.219656 C 268.083062 401.168875 268.934625 400.317313 269.9815 400.317313 C 271.032281 400.317313 271.883844 401.168875 271.883844 402.219656 Z M 271.883844 402.219656 " transform="matrix(1,0,0,-1,-248.294,461.247)"/>
<path style="fill-rule:evenodd;fill:rgb(0%,0%,0%);fill-opacity:1;stroke-width:0.76;stroke-linecap:butt;stroke-linejoin:round;stroke:rgb(0%,0%,0%);stroke-opacity:1;stroke-miterlimit:10;" d="M 311.977594 440.946219 C 311.977594 441.993094 311.126031 442.844656 310.07525 442.844656 C 309.024469 442.844656 308.176812 441.993094 308.176812 440.946219 C 308.176812 439.895438 309.024469 439.043875 310.07525 439.043875 C 311.126031 439.043875 311.977594 439.895438 311.977594 440.946219 Z M 311.977594 440.946219 " transform="matrix(1,0,0,-1,-248.294,461.247)"/>
<path style="fill-rule:evenodd;fill:rgb(0%,0%,0%);fill-opacity:1;stroke-width:0.76;stroke-linecap:butt;stroke-linejoin:round;stroke:rgb(0%,0%,0%);stroke-opacity:1;stroke-miterlimit:10;" d="M 289.657281 411.075125 C 289.657281 412.125906 288.805719 412.973563 287.758844 412.973563 C 286.708062 412.973563 285.8565 412.125906 285.8565 411.075125 C 285.8565 410.024344 286.708062 409.172781 287.758844 409.172781 C 288.805719 409.172781 289.657281 410.024344 289.657281 411.075125 Z M 289.657281 411.075125 " transform="matrix(1,0,0,-1,-248.294,461.247)"/>
<path style="fill-rule:evenodd;fill:rgb(0%,0%,0%);fill-opacity:1;stroke-width:0.76;stroke-linecap:butt;stroke-linejoin:round;stroke:rgb(0%,0%,0%);stroke-opacity:1;stroke-miterlimit:10;" d="M 276.297906 420.856375 C 276.297906 421.907156 275.446344 422.758719 274.395562 422.758719 C 273.348687 422.758719 272.497125 421.907156 272.497125 420.856375 C 272.497125 419.8095 273.348687 418.957938 274.395562 418.957938 C 275.446344 418.957938 276.297906 419.8095 276.297906 420.856375 Z M 276.297906 420.856375 " transform="matrix(1,0,0,-1,-248.294,461.247)"/>
<path style="fill-rule:evenodd;fill:rgb(0%,0%,0%);fill-opacity:1;stroke-width:0.76;stroke-linecap:butt;stroke-linejoin:round;stroke:rgb(0%,0%,0%);stroke-opacity:1;stroke-miterlimit:10;" d="M 288.305719 425.563406 C 288.305719 426.614188 287.458062 427.46575 286.407281 427.46575 C 285.3565 427.46575 284.508844 426.614188 284.508844 425.563406 C 284.508844 424.512625 285.3565 423.664969 286.407281 423.664969 C 287.458062 423.664969 288.305719 424.512625 288.305719 425.563406 Z M 288.305719 425.563406 " transform="matrix(1,0,0,-1,-248.294,461.247)"/>
<path style="fill-rule:evenodd;fill:rgb(0%,0%,0%);fill-opacity:1;stroke-width:0.76;stroke-linecap:butt;stroke-linejoin:round;stroke:rgb(0%,0%,0%);stroke-opacity:1;stroke-miterlimit:10;" d="M 285.270562 394.899344 C 285.270562 395.950125 284.419 396.801688 283.368219 396.801688 C 282.321344 396.801688 281.469781 395.950125 281.469781 394.899344 C 281.469781 393.852469 282.321344 393.000906 283.368219 393.000906 C 284.419 393.000906 285.270562 393.852469 285.270562 394.899344 Z M 285.270562 394.899344 " transform="matrix(1,0,0,-1,-248.294,461.247)"/>
<path style="fill-rule:evenodd;fill:rgb(0%,0%,0%);fill-opacity:1;stroke-width:0.76;stroke-linecap:butt;stroke-linejoin:round;stroke:rgb(0%,0%,0%);stroke-opacity:1;stroke-miterlimit:10;" d="M 315.649469 416.801688 C 315.649469 417.852469 314.797906 418.704031 313.747125 418.704031 C 312.70025 418.704031 311.848687 417.852469 311.848687 416.801688 C 311.848687 415.754813 312.70025 414.90325 313.747125 414.90325 C 314.797906 414.90325 315.649469 415.754813 315.649469 416.801688 Z M 315.649469 416.801688 " transform="matrix(1,0,0,-1,-248.294,461.247)"/>
<path style="fill-rule:evenodd;fill:rgb(0%,0%,0%);fill-opacity:1;stroke-width:0.76;stroke-linecap:butt;stroke-linejoin:round;stroke:rgb(0%,0%,0%);stroke-opacity:1;stroke-miterlimit:10;" d="M 324.76275 430.282156 C 324.76275 431.329031 323.911187 432.180594 322.860406 432.180594 C 321.813531 432.180594 320.961969 431.329031 320.961969 430.282156 C 320.961969 429.231375 321.813531 428.379813 322.860406 428.379813 C 323.911187 428.379813 324.76275 429.231375 324.76275 430.282156 Z M 324.76275 430.282156 " transform="matrix(1,0,0,-1,-248.294,461.247)"/>
<path style="fill-rule:evenodd;fill:rgb(0%,0%,0%);fill-opacity:1;stroke-width:0.76;stroke-linecap:butt;stroke-linejoin:round;stroke:rgb(0%,0%,0%);stroke-opacity:1;stroke-miterlimit:10;" d="M 315.985406 395.911063 C 315.985406 396.961844 315.133844 397.8095 314.083062 397.8095 C 313.036187 397.8095 312.184625 396.961844 312.184625 395.911063 C 312.184625 394.860281 313.036187 394.012625 314.083062 394.012625 C 315.133844 394.012625 315.985406 394.860281 315.985406 395.911063 Z M 315.985406 395.911063 " transform="matrix(1,0,0,-1,-248.294,461.247)"/>
<path style="fill-rule:evenodd;fill:rgb(0%,0%,0%);fill-opacity:1;stroke-width:0.76;stroke-linecap:butt;stroke-linejoin:round;stroke:rgb(0%,0%,0%);stroke-opacity:1;stroke-miterlimit:10;" d="M 329.149469 415.118094 C 329.149469 416.168875 328.297906 417.016531 327.247125 417.016531 C 326.20025 417.016531 325.348687 416.168875 325.348687 415.118094 C 325.348687 414.067313 326.20025 413.219656 327.247125 413.219656 C 328.297906 413.219656 329.149469 414.067313 329.149469 415.118094 Z M 329.149469 415.118094 " transform="matrix(1,0,0,-1,-248.294,461.247)"/>
<path style="fill:none;stroke-width:0.4;stroke-linecap:butt;stroke-linejoin:round;stroke:rgb(0%,0%,0%);stroke-opacity:1;stroke-miterlimit:10;" d="M 265.965875 452.887625 C 260.192437 448.993094 256.774469 443.004813 253.969781 435.918875 C 251.161187 428.832938 248.969781 420.65325 249.192437 412.473563 C 249.419 404.297781 252.063531 396.118094 257.129937 391.0595 C 262.192437 386.004813 269.676812 384.071219 279.129937 382.848563 C 288.579156 381.625906 299.997125 381.110281 310.192437 382.172781 C 320.383844 383.235281 329.352594 385.875906 335.383844 391.641531 C 341.415094 397.40325 344.51275 406.293875 345.4815 414.727469 C 346.446344 423.164969 345.286187 431.15325 341.965875 437.754813 C 338.641656 444.356375 333.157281 449.571219 326.4815 453.176688 C 319.805719 456.786063 311.934625 458.782156 305.321344 459.71575 C 298.708062 460.649344 293.352594 460.520438 286.610406 459.555594 C 279.868219 458.59075 271.739312 456.786063 265.965875 452.887625 Z M 265.965875 452.887625 " transform="matrix(1,0,0,-1,-248.294,461.247)"/>
<path style="fill:none;stroke-width:0.4;stroke-linecap:butt;stroke-linejoin:round;stroke:rgb(0%,0%,0%);stroke-opacity:1;stroke-miterlimit:10;" d="M 251.743219 399.547781 L 260.770562 403.9345 " transform="matrix(1,0,0,-1,-248.294,461.247)"/>
<path style="fill-rule:evenodd;fill:rgb(0%,0%,0%);fill-opacity:1;stroke-width:0.4;stroke-linecap:butt;stroke-linejoin:round;stroke:rgb(0%,0%,0%);stroke-opacity:1;stroke-miterlimit:10;" d="M 260.770562 403.9345 L 255.544 403.250906 L 257.001031 400.250906 Z M 260.770562 403.9345 " transform="matrix(1,0,0,-1,-248.294,461.247)"/>
<path style="fill:none;stroke-width:0.4;stroke-linecap:butt;stroke-linejoin:round;stroke:rgb(0%,0%,0%);stroke-opacity:1;stroke-miterlimit:10;" d="M 265.961969 385.700125 L 269.797906 393.71575 " transform="matrix(1,0,0,-1,-248.294,461.247)"/>
<path style="fill-rule:evenodd;fill:rgb(0%,0%,0%);fill-opacity:1;stroke-width:0.4;stroke-linecap:butt;stroke-linejoin:round;stroke:rgb(0%,0%,0%);stroke-opacity:1;stroke-miterlimit:10;" d="M 269.797906 393.71575 L 266.133844 389.926688 L 269.141656 388.485281 Z M 269.797906 393.71575 " transform="matrix(1,0,0,-1,-248.294,461.247)"/>
<path style="fill:none;stroke-width:0.4;stroke-linecap:butt;stroke-linejoin:round;stroke:rgb(0%,0%,0%);stroke-opacity:1;stroke-miterlimit:10;" d="M 287.727594 381.989188 L 288.188531 389.84075 " transform="matrix(1,0,0,-1,-248.294,461.247)"/>
<path style="fill-rule:evenodd;fill:rgb(0%,0%,0%);fill-opacity:1;stroke-width:0.4;stroke-linecap:butt;stroke-linejoin:round;stroke:rgb(0%,0%,0%);stroke-opacity:1;stroke-miterlimit:10;" d="M 288.188531 389.84075 L 286.2315 384.946219 L 289.559625 384.750906 Z M 288.188531 389.84075 " transform="matrix(1,0,0,-1,-248.294,461.247)"/>
<path style="fill:none;stroke-width:0.4;stroke-linecap:butt;stroke-linejoin:round;stroke:rgb(0%,0%,0%);stroke-opacity:1;stroke-miterlimit:10;" d="M 305.942437 381.821219 L 304.8565 389.637625 " transform="matrix(1,0,0,-1,-248.294,461.247)"/>
<path style="fill-rule:evenodd;fill:rgb(0%,0%,0%);fill-opacity:1;stroke-width:0.4;stroke-linecap:butt;stroke-linejoin:round;stroke:rgb(0%,0%,0%);stroke-opacity:1;stroke-miterlimit:10;" d="M 304.8565 389.637625 L 303.895562 384.457938 L 307.196344 384.914969 Z M 304.8565 389.637625 " transform="matrix(1,0,0,-1,-248.294,461.247)"/>
<path style="fill:none;stroke-width:0.4;stroke-linecap:butt;stroke-linejoin:round;stroke:rgb(0%,0%,0%);stroke-opacity:1;stroke-miterlimit:10;" d="M 327.071344 386.223563 L 321.540094 393.317313 " transform="matrix(1,0,0,-1,-248.294,461.247)"/>
<path style="fill-rule:evenodd;fill:rgb(0%,0%,0%);fill-opacity:1;stroke-width:0.4;stroke-linecap:butt;stroke-linejoin:round;stroke:rgb(0%,0%,0%);stroke-opacity:1;stroke-miterlimit:10;" d="M 321.540094 393.317313 L 323.301812 388.348563 L 325.930719 390.399344 Z M 321.540094 393.317313 " transform="matrix(1,0,0,-1,-248.294,461.247)"/>
<path style="fill:none;stroke-width:0.4;stroke-linecap:butt;stroke-linejoin:round;stroke:rgb(0%,0%,0%);stroke-opacity:1;stroke-miterlimit:10;" d="M 342.239312 401.961844 L 333.430719 406.196219 " transform="matrix(1,0,0,-1,-248.294,461.247)"/>
<path style="fill-rule:evenodd;fill:rgb(0%,0%,0%);fill-opacity:1;stroke-width:0.4;stroke-linecap:butt;stroke-linejoin:round;stroke:rgb(0%,0%,0%);stroke-opacity:1;stroke-miterlimit:10;" d="M 333.430719 406.196219 L 337.215875 402.52825 L 338.661187 405.532156 Z M 333.430719 406.196219 " transform="matrix(1,0,0,-1,-248.294,461.247)"/>
<path style="fill:none;stroke-width:0.4;stroke-linecap:butt;stroke-linejoin:round;stroke:rgb(0%,0%,0%);stroke-opacity:1;stroke-miterlimit:10;" d="M 250.01275 422.461844 L 259.26275 421.008719 " transform="matrix(1,0,0,-1,-248.294,461.247)"/>
<path style="fill-rule:evenodd;fill:rgb(0%,0%,0%);fill-opacity:1;stroke-width:0.4;stroke-linecap:butt;stroke-linejoin:round;stroke:rgb(0%,0%,0%);stroke-opacity:1;stroke-miterlimit:10;" d="M 259.26275 421.008719 L 254.579156 423.430594 L 254.063531 420.137625 Z M 259.26275 421.008719 " transform="matrix(1,0,0,-1,-248.294,461.247)"/>
<path style="fill:none;stroke-width:0.4;stroke-linecap:butt;stroke-linejoin:round;stroke:rgb(0%,0%,0%);stroke-opacity:1;stroke-miterlimit:10;" d="M 256.782281 442.118094 L 264.727594 437.567313 " transform="matrix(1,0,0,-1,-248.294,461.247)"/>
<path style="fill-rule:evenodd;fill:rgb(0%,0%,0%);fill-opacity:1;stroke-width:0.4;stroke-linecap:butt;stroke-linejoin:round;stroke:rgb(0%,0%,0%);stroke-opacity:1;stroke-miterlimit:10;" d="M 264.727594 437.567313 L 261.215875 441.500906 L 259.559625 438.606375 Z M 264.727594 437.567313 " transform="matrix(1,0,0,-1,-248.294,461.247)"/>
<path style="fill:none;stroke-width:0.4;stroke-linecap:butt;stroke-linejoin:round;stroke:rgb(0%,0%,0%);stroke-opacity:1;stroke-miterlimit:10;" d="M 269.680719 454.985281 L 274.215875 447.641531 " transform="matrix(1,0,0,-1,-248.294,461.247)"/>
<path style="fill-rule:evenodd;fill:rgb(0%,0%,0%);fill-opacity:1;stroke-width:0.4;stroke-linecap:butt;stroke-linejoin:round;stroke:rgb(0%,0%,0%);stroke-opacity:1;stroke-miterlimit:10;" d="M 274.215875 447.641531 L 273.004937 452.770438 L 270.169 451.020438 Z M 274.215875 447.641531 " transform="matrix(1,0,0,-1,-248.294,461.247)"/>
<path style="fill:none;stroke-width:0.4;stroke-linecap:butt;stroke-linejoin:round;stroke:rgb(0%,0%,0%);stroke-opacity:1;stroke-miterlimit:10;" d="M 290.993219 460.079031 L 291.415094 452.118094 " transform="matrix(1,0,0,-1,-248.294,461.247)"/>
<path style="fill-rule:evenodd;fill:rgb(0%,0%,0%);fill-opacity:1;stroke-width:0.4;stroke-linecap:butt;stroke-linejoin:round;stroke:rgb(0%,0%,0%);stroke-opacity:1;stroke-miterlimit:10;" d="M 291.415094 452.118094 L 292.817437 457.200125 L 289.489312 457.024344 Z M 291.415094 452.118094 " transform="matrix(1,0,0,-1,-248.294,461.247)"/>
<path style="fill:none;stroke-width:0.4;stroke-linecap:butt;stroke-linejoin:round;stroke:rgb(0%,0%,0%);stroke-opacity:1;stroke-miterlimit:10;" d="M 308.126031 459.266531 L 306.45025 451.457938 " transform="matrix(1,0,0,-1,-248.294,461.247)"/>
<path style="fill-rule:evenodd;fill:rgb(0%,0%,0%);fill-opacity:1;stroke-width:0.4;stroke-linecap:butt;stroke-linejoin:round;stroke:rgb(0%,0%,0%);stroke-opacity:1;stroke-miterlimit:10;" d="M 306.45025 451.457938 L 309.129937 455.993094 L 305.868219 456.692313 Z M 306.45025 451.457938 " transform="matrix(1,0,0,-1,-248.294,461.247)"/>
<path style="fill:none;stroke-width:0.4;stroke-linecap:butt;stroke-linejoin:round;stroke:rgb(0%,0%,0%);stroke-opacity:1;stroke-miterlimit:10;" d="M 327.723687 452.481375 L 322.497125 445.59075 " transform="matrix(1,0,0,-1,-248.294,461.247)"/>
<path style="fill-rule:evenodd;fill:rgb(0%,0%,0%);fill-opacity:1;stroke-width:0.4;stroke-linecap:butt;stroke-linejoin:round;stroke:rgb(0%,0%,0%);stroke-opacity:1;stroke-miterlimit:10;" d="M 322.497125 445.59075 L 326.844781 448.567313 L 324.188531 450.582938 Z M 322.497125 445.59075 " transform="matrix(1,0,0,-1,-248.294,461.247)"/>
<path style="fill:none;stroke-width:0.4;stroke-linecap:butt;stroke-linejoin:round;stroke:rgb(0%,0%,0%);stroke-opacity:1;stroke-miterlimit:10;" d="M 342.086969 437.512625 L 333.739312 432.762625 " transform="matrix(1,0,0,-1,-248.294,461.247)"/>
<path style="fill-rule:evenodd;fill:rgb(0%,0%,0%);fill-opacity:1;stroke-width:0.4;stroke-linecap:butt;stroke-linejoin:round;stroke:rgb(0%,0%,0%);stroke-opacity:1;stroke-miterlimit:10;" d="M 333.739312 432.762625 L 338.911187 433.786063 L 337.26275 436.6845 Z M 333.739312 432.762625 " transform="matrix(1,0,0,-1,-248.294,461.247)"/>
<path style="fill:none;stroke-width:0.4;stroke-linecap:butt;stroke-linejoin:round;stroke:rgb(0%,0%,0%);stroke-opacity:1;stroke-miterlimit:10;" d="M 345.805719 421.149344 L 336.079156 421.125906 " transform="matrix(1,0,0,-1,-248.294,461.247)"/>
<path style="fill-rule:evenodd;fill:rgb(0%,0%,0%);fill-opacity:1;stroke-width:0.4;stroke-linecap:butt;stroke-linejoin:round;stroke:rgb(0%,0%,0%);stroke-opacity:1;stroke-miterlimit:10;" d="M 336.079156 421.125906 L 341.083062 419.469656 L 341.07525 422.801688 Z M 336.079156 421.125906 " transform="matrix(1,0,0,-1,-248.294,461.247)"/>
</g>
</svg>
