<?xml version="1.0" encoding="UTF-8" standalone="no"?>
<svg
   xmlns:dc="http://purl.org/dc/elements/1.1/"
   xmlns:cc="http://creativecommons.org/ns#"
   xmlns:rdf="http://www.w3.org/1999/02/22-rdf-syntax-ns#"
   xmlns:svg="http://www.w3.org/2000/svg"
   xmlns="http://www.w3.org/2000/svg"
   version="1.1"
   id="svg2"
   xml:space="preserve"
   width="131.21733"
   height="107.324"
   viewBox="0 0 131.21733 107.324"><metadata
     id="metadata8"><rdf:RDF><cc:Work
         rdf:about=""><dc:format>image/svg+xml</dc:format><dc:type
           rdf:resource="http://purl.org/dc/dcmitype/StillImage" /></cc:Work></rdf:RDF></metadata><defs
     id="defs6"><clipPath
       clipPathUnits="userSpaceOnUse"
       id="clipPath22"><path
         d="m 248.294,380.754 h 98.413 v 80.493 h -98.413 z"
         id="path20" /></clipPath></defs><g
     id="g10"
     transform="matrix(1.3333333,0,0,-1.3333333,4.3520002e-7,107.32402)"><g
       id="g12"><g
         id="g14"
         transform="translate(-248.294,-380.754)"><g
           id="g16"><g
             id="g18"
             clip-path="url(#clipPath22)"><g
               id="g24"><g
                 id="g26"><g
                   id="g28"><path
                     d="m 262.78,412.093 9.295,24.665 12.074,7.507 25.927,-3.32 12.785,-10.664 4.388,-15.163 -13.164,-19.207 -30.715,-1.011 -13.387,7.319 -7.203,9.874"
                     style="fill:#cccccc;fill-opacity:1;fill-rule:evenodd;stroke:#000000;stroke-width:0.4;stroke-linecap:butt;stroke-linejoin:round;stroke-miterlimit:10;stroke-dasharray:none;stroke-opacity:1"
                     id="path30" /></g><g
                   id="g32"><path
                     d="m 264.68,412.093 c 0,1.05 -0.851,1.9 -1.9,1.9 -1.049,0 -1.9,-0.85 -1.9,-1.9 0,-1.049 0.851,-1.9 1.9,-1.9 1.049,0 1.9,0.851 1.9,1.9 z"
                     style="fill:#000000;fill-opacity:1;fill-rule:evenodd;stroke:#000000;stroke-width:0.76;stroke-linecap:butt;stroke-linejoin:round;stroke-miterlimit:10;stroke-dasharray:none;stroke-opacity:1"
                     id="path34" /></g><g
                   id="g36"><path
                     d="m 273.975,436.758 c 0,1.049 -0.85,1.9 -1.9,1.9 -1.049,0 -1.9,-0.851 -1.9,-1.9 0,-1.049 0.851,-1.9 1.9,-1.9 1.05,0 1.9,0.851 1.9,1.9 z"
                     style="fill:#000000;fill-opacity:1;fill-rule:evenodd;stroke:#000000;stroke-width:0.76;stroke-linecap:butt;stroke-linejoin:round;stroke-miterlimit:10;stroke-dasharray:none;stroke-opacity:1"
                     id="path38" /></g><g
                   id="g40"><path
                     d="m 286.049,444.265 c 0,1.049 -0.85,1.9 -1.9,1.9 -1.049,0 -1.9,-0.851 -1.9,-1.9 0,-1.049 0.851,-1.9 1.9,-1.9 1.05,0 1.9,0.851 1.9,1.9 z"
                     style="fill:#000000;fill-opacity:1;fill-rule:evenodd;stroke:#000000;stroke-width:0.76;stroke-linecap:butt;stroke-linejoin:round;stroke-miterlimit:10;stroke-dasharray:none;stroke-opacity:1"
                     id="path42" /></g><g
                   id="g44"><path
                     d="m 294.277,436.861 c 0,1.05 -0.85,1.9 -1.9,1.9 -1.049,0 -1.899,-0.85 -1.899,-1.9 0,-1.049 0.85,-1.9 1.899,-1.9 1.05,0 1.9,0.851 1.9,1.9 z"
                     style="fill:#000000;fill-opacity:1;fill-rule:evenodd;stroke:#000000;stroke-width:0.76;stroke-linecap:butt;stroke-linejoin:round;stroke-miterlimit:10;stroke-dasharray:none;stroke-opacity:1"
                     id="path46" /></g><g
                   id="g48"><path
                     d="m 302.885,422.611 c 0,1.049 -0.85,1.9 -1.9,1.9 -1.049,0 -1.9,-0.851 -1.9,-1.9 0,-1.049 0.851,-1.9 1.9,-1.9 1.05,0 1.9,0.851 1.9,1.9 z"
                     style="fill:#000000;fill-opacity:1;fill-rule:evenodd;stroke:#000000;stroke-width:0.76;stroke-linecap:butt;stroke-linejoin:round;stroke-miterlimit:10;stroke-dasharray:none;stroke-opacity:1"
                     id="path50" /></g><g
                   id="g52"><path
                     d="m 304.61,398.71 c 0,1.05 -0.851,1.9 -1.9,1.9 -1.05,0 -1.9,-0.85 -1.9,-1.9 0,-1.049 0.85,-1.9 1.9,-1.9 1.049,0 1.9,0.851 1.9,1.9 z"
                     style="fill:#000000;fill-opacity:1;fill-rule:evenodd;stroke:#000000;stroke-width:0.76;stroke-linecap:butt;stroke-linejoin:round;stroke-miterlimit:10;stroke-dasharray:none;stroke-opacity:1"
                     id="path54" /></g><g
                   id="g56"><path
                     d="m 271.883,402.219 c 0,1.05 -0.85,1.9 -1.9,1.9 -1.049,0 -1.899,-0.85 -1.899,-1.9 0,-1.049 0.85,-1.9 1.899,-1.9 1.05,0 1.9,0.851 1.9,1.9 z"
                     style="fill:#000000;fill-opacity:1;fill-rule:evenodd;stroke:#000000;stroke-width:0.76;stroke-linecap:butt;stroke-linejoin:round;stroke-miterlimit:10;stroke-dasharray:none;stroke-opacity:1"
                     id="path58" /></g><g
                   id="g60"><path
                     d="m 311.976,440.945 c 0,1.049 -0.851,1.9 -1.9,1.9 -1.05,0 -1.9,-0.851 -1.9,-1.9 0,-1.049 0.85,-1.9 1.9,-1.9 1.049,0 1.9,0.851 1.9,1.9 z"
                     style="fill:#000000;fill-opacity:1;fill-rule:evenodd;stroke:#000000;stroke-width:0.76;stroke-linecap:butt;stroke-linejoin:round;stroke-miterlimit:10;stroke-dasharray:none;stroke-opacity:1"
                     id="path62" /></g><g
                   id="g64"><path
                     d="m 289.658,411.074 c 0,1.05 -0.851,1.9 -1.9,1.9 -1.05,0 -1.9,-0.85 -1.9,-1.9 0,-1.049 0.85,-1.9 1.9,-1.9 1.049,0 1.9,0.851 1.9,1.9 z"
                     style="fill:#000000;fill-opacity:1;fill-rule:evenodd;stroke:#000000;stroke-width:0.76;stroke-linecap:butt;stroke-linejoin:round;stroke-miterlimit:10;stroke-dasharray:none;stroke-opacity:1"
                     id="path66" /></g><g
                   id="g68"><path
                     d="m 276.296,420.858 c 0,1.05 -0.851,1.9 -1.9,1.9 -1.049,0 -1.9,-0.85 -1.9,-1.9 0,-1.049 0.851,-1.899 1.9,-1.899 1.049,0 1.9,0.85 1.9,1.899 z"
                     style="fill:#000000;fill-opacity:1;fill-rule:evenodd;stroke:#000000;stroke-width:0.76;stroke-linecap:butt;stroke-linejoin:round;stroke-miterlimit:10;stroke-dasharray:none;stroke-opacity:1"
                     id="path70" /></g><g
                   id="g72"><path
                     d="m 288.307,425.564 c 0,1.049 -0.85,1.9 -1.9,1.9 -1.049,0 -1.9,-0.851 -1.9,-1.9 0,-1.05 0.851,-1.9 1.9,-1.9 1.05,0 1.9,0.85 1.9,1.9 z"
                     style="fill:#000000;fill-opacity:1;fill-rule:evenodd;stroke:#000000;stroke-width:0.76;stroke-linecap:butt;stroke-linejoin:round;stroke-miterlimit:10;stroke-dasharray:none;stroke-opacity:1"
                     id="path74" /></g><g
                   id="g76"><path
                     d="m 285.27,394.9 c 0,1.05 -0.851,1.9 -1.9,1.9 -1.05,0 -1.9,-0.85 -1.9,-1.9 0,-1.049 0.85,-1.9 1.9,-1.9 1.049,0 1.9,0.851 1.9,1.9 z"
                     style="fill:#000000;fill-opacity:1;fill-rule:evenodd;stroke:#000000;stroke-width:0.76;stroke-linecap:butt;stroke-linejoin:round;stroke-miterlimit:10;stroke-dasharray:none;stroke-opacity:1"
                     id="path78" /></g><g
                   id="g80"><path
                     d="m 315.648,416.803 c 0,1.049 -0.851,1.9 -1.9,1.9 -1.049,0 -1.9,-0.851 -1.9,-1.9 0,-1.05 0.851,-1.9 1.9,-1.9 1.049,0 1.9,0.85 1.9,1.9 z"
                     style="fill:#000000;fill-opacity:1;fill-rule:evenodd;stroke:#000000;stroke-width:0.76;stroke-linecap:butt;stroke-linejoin:round;stroke-miterlimit:10;stroke-dasharray:none;stroke-opacity:1"
                     id="path82" /></g><g
                   id="g84"><path
                     d="m 324.761,430.281 c 0,1.049 -0.85,1.9 -1.9,1.9 -1.049,0 -1.9,-0.851 -1.9,-1.9 0,-1.049 0.851,-1.9 1.9,-1.9 1.05,0 1.9,0.851 1.9,1.9 z"
                     style="fill:#000000;fill-opacity:1;fill-rule:evenodd;stroke:#000000;stroke-width:0.76;stroke-linecap:butt;stroke-linejoin:round;stroke-miterlimit:10;stroke-dasharray:none;stroke-opacity:1"
                     id="path86" /></g><g
                   id="g88"><path
                     d="m 315.985,395.911 c 0,1.049 -0.85,1.9 -1.9,1.9 -1.049,0 -1.9,-0.851 -1.9,-1.9 0,-1.049 0.851,-1.9 1.9,-1.9 1.05,0 1.9,0.851 1.9,1.9 z"
                     style="fill:#000000;fill-opacity:1;fill-rule:evenodd;stroke:#000000;stroke-width:0.76;stroke-linecap:butt;stroke-linejoin:round;stroke-miterlimit:10;stroke-dasharray:none;stroke-opacity:1"
                     id="path90" /></g><g
                   id="g92"><path
                     d="m 329.149,415.118 c 0,1.049 -0.85,1.9 -1.9,1.9 -1.049,0 -1.9,-0.851 -1.9,-1.9 0,-1.05 0.851,-1.9 1.9,-1.9 1.05,0 1.9,0.85 1.9,1.9 z"
                     style="fill:#000000;fill-opacity:1;fill-rule:evenodd;stroke:#000000;stroke-width:0.76;stroke-linecap:butt;stroke-linejoin:round;stroke-miterlimit:10;stroke-dasharray:none;stroke-opacity:1"
                     id="path94" /></g></g><g
                 id="g96"><path
                   d="m 265.967,452.889 c -5.774,-3.897 -9.193,-9.886 -11.999,-16.971 -2.807,-7.084 -5,-15.264 -4.774,-23.443 0.225,-8.179 2.871,-16.358 7.935,-21.414 5.064,-5.056 12.548,-6.988 21.999,-8.212 9.451,-1.223 20.87,-1.738 31.064,-0.676 10.193,1.063 19.16,3.703 25.192,9.467 6.032,5.765 9.129,14.652 10.097,23.089 0.967,8.437 -0.194,16.423 -3.516,23.025 -3.323,6.601 -8.807,11.818 -15.484,15.424 -6.677,3.607 -14.548,5.603 -21.16,6.537 -6.613,0.934 -11.968,0.805 -18.709,-0.16 -6.742,-0.966 -14.871,-2.77 -20.645,-6.666 z"
                   style="fill:none;stroke:#000000;stroke-width:0.4;stroke-linecap:butt;stroke-linejoin:round;stroke-miterlimit:10;stroke-dasharray:none;stroke-opacity:1"
                   id="path98" /></g><g
                 id="g100"><path
                   d="m 251.742,399.549 9.027,4.387"
                   style="fill:none;stroke:#000000;stroke-width:0.4;stroke-linecap:butt;stroke-linejoin:round;stroke-miterlimit:10;stroke-dasharray:none;stroke-opacity:1"
                   id="path102" /><g
                   id="g104"><path
                     d="m 260.769,403.936 -5.225,-0.687 1.457,-2.998 z"
                     style="fill:#000000;fill-opacity:1;fill-rule:evenodd;stroke:#000000;stroke-width:0.4;stroke-linecap:butt;stroke-linejoin:round;stroke-miterlimit:10;stroke-dasharray:none;stroke-opacity:1"
                     id="path106" /></g></g><g
                 id="g108"><path
                   d="m 265.962,385.702 3.834,8.015"
                   style="fill:none;stroke:#000000;stroke-width:0.4;stroke-linecap:butt;stroke-linejoin:round;stroke-miterlimit:10;stroke-dasharray:none;stroke-opacity:1"
                   id="path110" /><g
                   id="g112"><path
                     d="m 269.796,393.717 -3.661,-3.791 3.007,-1.439 z"
                     style="fill:#000000;fill-opacity:1;fill-rule:evenodd;stroke:#000000;stroke-width:0.4;stroke-linecap:butt;stroke-linejoin:round;stroke-miterlimit:10;stroke-dasharray:none;stroke-opacity:1"
                     id="path114" /></g></g><g
                 id="g116"><path
                   d="m 287.727,381.988 0.461,7.851"
                   style="fill:none;stroke:#000000;stroke-width:0.4;stroke-linecap:butt;stroke-linejoin:round;stroke-miterlimit:10;stroke-dasharray:none;stroke-opacity:1"
                   id="path118" /><g
                   id="g120"><path
                     d="m 288.188,389.839 -1.957,-4.894 3.328,-0.195 z"
                     style="fill:#000000;fill-opacity:1;fill-rule:evenodd;stroke:#000000;stroke-width:0.4;stroke-linecap:butt;stroke-linejoin:round;stroke-miterlimit:10;stroke-dasharray:none;stroke-opacity:1"
                     id="path122" /></g></g><g
                 id="g124"><path
                   d="m 305.944,381.823 -1.086,7.816"
                   style="fill:none;stroke:#000000;stroke-width:0.4;stroke-linecap:butt;stroke-linejoin:round;stroke-miterlimit:10;stroke-dasharray:none;stroke-opacity:1"
                   id="path126" /><g
                   id="g128"><path
                     d="m 304.858,389.639 -0.963,-5.181 3.302,0.458 z"
                     style="fill:#000000;fill-opacity:1;fill-rule:evenodd;stroke:#000000;stroke-width:0.4;stroke-linecap:butt;stroke-linejoin:round;stroke-miterlimit:10;stroke-dasharray:none;stroke-opacity:1"
                     id="path130" /></g></g><g
                 id="g132"><path
                   d="m 327.073,386.223 -5.534,7.093"
                   style="fill:none;stroke:#000000;stroke-width:0.4;stroke-linecap:butt;stroke-linejoin:round;stroke-miterlimit:10;stroke-dasharray:none;stroke-opacity:1"
                   id="path134" /><g
                   id="g136"><path
                     d="m 321.539,393.316 1.762,-4.968 2.628,2.051 z"
                     style="fill:#000000;fill-opacity:1;fill-rule:evenodd;stroke:#000000;stroke-width:0.4;stroke-linecap:butt;stroke-linejoin:round;stroke-miterlimit:10;stroke-dasharray:none;stroke-opacity:1"
                     id="path138" /></g></g><g
                 id="g140"><path
                   d="m 342.239,401.961 -8.808,4.237"
                   style="fill:none;stroke:#000000;stroke-width:0.4;stroke-linecap:butt;stroke-linejoin:round;stroke-miterlimit:10;stroke-dasharray:none;stroke-opacity:1"
                   id="path142" /><g
                   id="g144"><path
                     d="m 333.431,406.198 3.784,-3.67 1.445,3.004 z"
                     style="fill:#000000;fill-opacity:1;fill-rule:evenodd;stroke:#000000;stroke-width:0.4;stroke-linecap:butt;stroke-linejoin:round;stroke-miterlimit:10;stroke-dasharray:none;stroke-opacity:1"
                     id="path146" /></g></g><g
                 id="g148"><path
                   d="m 250.011,422.46 9.251,-1.451"
                   style="fill:none;stroke:#000000;stroke-width:0.4;stroke-linecap:butt;stroke-linejoin:round;stroke-miterlimit:10;stroke-dasharray:none;stroke-opacity:1"
                   id="path150" /><g
                   id="g152"><path
                     d="m 259.262,421.009 -4.681,2.421 -0.517,-3.293 z"
                     style="fill:#000000;fill-opacity:1;fill-rule:evenodd;stroke:#000000;stroke-width:0.4;stroke-linecap:butt;stroke-linejoin:round;stroke-miterlimit:10;stroke-dasharray:none;stroke-opacity:1"
                     id="path154" /></g></g><g
                 id="g156"><path
                   d="m 256.784,442.12 7.942,-4.553"
                   style="fill:none;stroke:#000000;stroke-width:0.4;stroke-linecap:butt;stroke-linejoin:round;stroke-miterlimit:10;stroke-dasharray:none;stroke-opacity:1"
                   id="path158" /><g
                   id="g160"><path
                     d="m 264.726,437.567 -3.509,3.933 -1.658,-2.892 z"
                     style="fill:#000000;fill-opacity:1;fill-rule:evenodd;stroke:#000000;stroke-width:0.4;stroke-linecap:butt;stroke-linejoin:round;stroke-miterlimit:10;stroke-dasharray:none;stroke-opacity:1"
                     id="path162" /></g></g><g
                 id="g164"><path
                   d="m 269.68,454.984 4.534,-7.344"
                   style="fill:none;stroke:#000000;stroke-width:0.4;stroke-linecap:butt;stroke-linejoin:round;stroke-miterlimit:10;stroke-dasharray:none;stroke-opacity:1"
                   id="path166" /><g
                   id="g168"><path
                     d="m 274.214,447.64 -1.209,5.13 -2.836,-1.751 z"
                     style="fill:#000000;fill-opacity:1;fill-rule:evenodd;stroke:#000000;stroke-width:0.4;stroke-linecap:butt;stroke-linejoin:round;stroke-miterlimit:10;stroke-dasharray:none;stroke-opacity:1"
                     id="path170" /></g></g><g
                 id="g172"><path
                   d="m 290.995,460.078 0.42,-7.96"
                   style="fill:none;stroke:#000000;stroke-width:0.4;stroke-linecap:butt;stroke-linejoin:round;stroke-miterlimit:10;stroke-dasharray:none;stroke-opacity:1"
                   id="path174" /><g
                   id="g176"><path
                     d="m 291.415,452.118 1.401,5.081 -3.328,-0.176 z"
                     style="fill:#000000;fill-opacity:1;fill-rule:evenodd;stroke:#000000;stroke-width:0.4;stroke-linecap:butt;stroke-linejoin:round;stroke-miterlimit:10;stroke-dasharray:none;stroke-opacity:1"
                     id="path178" /></g></g><g
                 id="g180"><path
                   d="m 308.125,459.266 -1.675,-7.81"
                   style="fill:none;stroke:#000000;stroke-width:0.4;stroke-linecap:butt;stroke-linejoin:round;stroke-miterlimit:10;stroke-dasharray:none;stroke-opacity:1"
                   id="path182" /><g
                   id="g184"><path
                     d="m 306.45,451.456 2.678,4.539 -3.259,0.699 z"
                     style="fill:#000000;fill-opacity:1;fill-rule:evenodd;stroke:#000000;stroke-width:0.4;stroke-linecap:butt;stroke-linejoin:round;stroke-miterlimit:10;stroke-dasharray:none;stroke-opacity:1"
                     id="path186" /></g></g><g
                 id="g188"><path
                   d="m 327.723,452.481 -5.227,-6.891"
                   style="fill:none;stroke:#000000;stroke-width:0.4;stroke-linecap:butt;stroke-linejoin:round;stroke-miterlimit:10;stroke-dasharray:none;stroke-opacity:1"
                   id="path190" /><g
                   id="g192"><path
                     d="m 322.496,445.59 4.35,2.977 -2.656,2.014 z"
                     style="fill:#000000;fill-opacity:1;fill-rule:evenodd;stroke:#000000;stroke-width:0.4;stroke-linecap:butt;stroke-linejoin:round;stroke-miterlimit:10;stroke-dasharray:none;stroke-opacity:1"
                     id="path194" /></g></g><g
                 id="g196"><path
                   d="m 342.086,437.511 -8.346,-4.75"
                   style="fill:none;stroke:#000000;stroke-width:0.4;stroke-linecap:butt;stroke-linejoin:round;stroke-miterlimit:10;stroke-dasharray:none;stroke-opacity:1"
                   id="path198" /><g
                   id="g200"><path
                     d="m 333.74,432.761 5.17,1.025 -1.649,2.897 z"
                     style="fill:#000000;fill-opacity:1;fill-rule:evenodd;stroke:#000000;stroke-width:0.4;stroke-linecap:butt;stroke-linejoin:round;stroke-miterlimit:10;stroke-dasharray:none;stroke-opacity:1"
                     id="path202" /></g></g><g
                 id="g204"><path
                   d="m 345.804,421.148 -9.724,-0.024"
                   style="fill:none;stroke:#000000;stroke-width:0.4;stroke-linecap:butt;stroke-linejoin:round;stroke-miterlimit:10;stroke-dasharray:none;stroke-opacity:1"
                   id="path206" /><g
                   id="g208"><path
                     d="m 336.08,421.124 5.004,-1.654 -0.008,3.333 z"
                     style="fill:#000000;fill-opacity:1;fill-rule:evenodd;stroke:#000000;stroke-width:0.4;stroke-linecap:butt;stroke-linejoin:round;stroke-miterlimit:10;stroke-dasharray:none;stroke-opacity:1"
                     id="path210" /></g></g></g></g></g></g></g></g></svg>
