<?xml version="1.0" encoding="UTF-8" standalone="no"?>
<svg
   xmlns:dc="http://purl.org/dc/elements/1.1/"
   xmlns:cc="http://creativecommons.org/ns#"
   xmlns:rdf="http://www.w3.org/1999/02/22-rdf-syntax-ns#"
   xmlns:svg="http://www.w3.org/2000/svg"
   xmlns="http://www.w3.org/2000/svg"
   version="1.1"
   id="svg2"
   xml:space="preserve"
   width="164.98132"
   height="98.017334"
   viewBox="0 0 164.98132 98.017334"><metadata
     id="metadata8"><rdf:RDF><cc:Work
         rdf:about=""><dc:format>image/svg+xml</dc:format><dc:type
           rdf:resource="http://purl.org/dc/dcmitype/StillImage" /></cc:Work></rdf:RDF></metadata><defs
     id="defs6"><clipPath
       clipPathUnits="userSpaceOnUse"
       id="clipPath22"><path
         d="m 235.632,382.106 h 123.736 v 73.513 H 235.632 Z"
         id="path20" /></clipPath></defs><g
     id="g10"
     transform="matrix(1.3333333,0,0,-1.3333333,4.3520002e-7,98.017357)"><g
       id="g12"><g
         id="g14"
         transform="translate(-235.632,-382.106)"><g
           id="g16"><g
             id="g18"
             clip-path="url(#clipPath22)"><g
               id="g24"><path
                 d="m 254.585,406.757 11.619,30.831 15.092,9.383 32.408,-4.149 15.982,-13.33 5.485,-18.954 -16.455,-24.009 -38.394,-1.263 -16.733,9.148 -9.004,12.343"
                 style="fill:none;stroke:#000000;stroke-width:0.4;stroke-linecap:butt;stroke-linejoin:round;stroke-miterlimit:10;stroke-dasharray:4;stroke-dashoffset:0;stroke-opacity:1"
                 id="path26" /></g><g
               id="g28"><path
                 d="m 256.485,406.757 c 0,1.049 -0.851,1.9 -1.9,1.9 -1.05,0 -1.9,-0.851 -1.9,-1.9 0,-1.049 0.85,-1.9 1.9,-1.9 1.049,0 1.9,0.851 1.9,1.9 z"
                 style="fill:#000000;fill-opacity:1;fill-rule:evenodd;stroke:#000000;stroke-width:0.76;stroke-linecap:butt;stroke-linejoin:round;stroke-miterlimit:10;stroke-dasharray:none;stroke-opacity:1"
                 id="path30" /></g><g
               id="g32"><path
                 d="m 268.104,437.588 c 0,1.049 -0.851,1.9 -1.9,1.9 -1.05,0 -1.9,-0.851 -1.9,-1.9 0,-1.049 0.85,-1.9 1.9,-1.9 1.049,0 1.9,0.851 1.9,1.9 z"
                 style="fill:#000000;fill-opacity:1;fill-rule:evenodd;stroke:#000000;stroke-width:0.76;stroke-linecap:butt;stroke-linejoin:round;stroke-miterlimit:10;stroke-dasharray:none;stroke-opacity:1"
                 id="path34" /></g><g
               id="g36"><path
                 d="m 283.196,446.971 c 0,1.049 -0.851,1.9 -1.9,1.9 -1.049,0 -1.9,-0.851 -1.9,-1.9 0,-1.049 0.851,-1.9 1.9,-1.9 1.049,0 1.9,0.851 1.9,1.9 z"
                 style="fill:#000000;fill-opacity:1;fill-rule:evenodd;stroke:#000000;stroke-width:0.76;stroke-linecap:butt;stroke-linejoin:round;stroke-miterlimit:10;stroke-dasharray:none;stroke-opacity:1"
                 id="path38" /></g><g
               id="g40"><path
                 d="m 293.481,437.717 c 0,1.049 -0.85,1.9 -1.899,1.9 -1.05,0 -1.9,-0.851 -1.9,-1.9 0,-1.05 0.85,-1.9 1.9,-1.9 1.049,0 1.899,0.85 1.899,1.9 z"
                 style="fill:#000000;fill-opacity:1;fill-rule:evenodd;stroke:#000000;stroke-width:0.76;stroke-linecap:butt;stroke-linejoin:round;stroke-miterlimit:10;stroke-dasharray:none;stroke-opacity:1"
                 id="path42" /></g><g
               id="g44"><path
                 d="m 304.241,419.904 c 0,1.049 -0.85,1.9 -1.9,1.9 -1.049,0 -1.9,-0.851 -1.9,-1.9 0,-1.049 0.851,-1.9 1.9,-1.9 1.05,0 1.9,0.851 1.9,1.9 z"
                 style="fill:#000000;fill-opacity:1;fill-rule:evenodd;stroke:#000000;stroke-width:0.76;stroke-linecap:butt;stroke-linejoin:round;stroke-miterlimit:10;stroke-dasharray:none;stroke-opacity:1"
                 id="path46" /></g><g
               id="g48"><path
                 d="m 306.397,390.028 c 0,1.049 -0.851,1.9 -1.9,1.9 -1.05,0 -1.9,-0.851 -1.9,-1.9 0,-1.049 0.85,-1.9 1.9,-1.9 1.049,0 1.9,0.851 1.9,1.9 z"
                 style="fill:#000000;fill-opacity:1;fill-rule:evenodd;stroke:#000000;stroke-width:0.76;stroke-linecap:butt;stroke-linejoin:round;stroke-miterlimit:10;stroke-dasharray:none;stroke-opacity:1"
                 id="path50" /></g><g
               id="g52"><path
                 d="m 265.489,394.414 c 0,1.05 -0.85,1.9 -1.9,1.9 -1.049,0 -1.9,-0.85 -1.9,-1.9 0,-1.049 0.851,-1.9 1.9,-1.9 1.05,0 1.9,0.851 1.9,1.9 z"
                 style="fill:#000000;fill-opacity:1;fill-rule:evenodd;stroke:#000000;stroke-width:0.76;stroke-linecap:butt;stroke-linejoin:round;stroke-miterlimit:10;stroke-dasharray:none;stroke-opacity:1"
                 id="path54" /></g><g
               id="g56"><path
                 d="m 315.604,442.822 c 0,1.049 -0.85,1.9 -1.9,1.9 -1.049,0 -1.9,-0.851 -1.9,-1.9 0,-1.049 0.851,-1.9 1.9,-1.9 1.05,0 1.9,0.851 1.9,1.9 z"
                 style="fill:#000000;fill-opacity:1;fill-rule:evenodd;stroke:#000000;stroke-width:0.76;stroke-linecap:butt;stroke-linejoin:round;stroke-miterlimit:10;stroke-dasharray:none;stroke-opacity:1"
                 id="path58" /></g><g
               id="g60"><path
                 d="m 287.707,405.483 c 0,1.05 -0.851,1.9 -1.9,1.9 -1.05,0 -1.9,-0.85 -1.9,-1.9 0,-1.049 0.85,-1.9 1.9,-1.9 1.049,0 1.9,0.851 1.9,1.9 z"
                 style="fill:#000000;fill-opacity:1;fill-rule:evenodd;stroke:#000000;stroke-width:0.76;stroke-linecap:butt;stroke-linejoin:round;stroke-miterlimit:10;stroke-dasharray:none;stroke-opacity:1"
                 id="path62" /></g><g
               id="g64"><path
                 d="m 271.004,417.713 c 0,1.05 -0.85,1.9 -1.9,1.9 -1.049,0 -1.9,-0.85 -1.9,-1.9 0,-1.049 0.851,-1.9 1.9,-1.9 1.05,0 1.9,0.851 1.9,1.9 z"
                 style="fill:#000000;fill-opacity:1;fill-rule:evenodd;stroke:#000000;stroke-width:0.76;stroke-linecap:butt;stroke-linejoin:round;stroke-miterlimit:10;stroke-dasharray:none;stroke-opacity:1"
                 id="path66" /></g><g
               id="g68"><path
                 d="m 286.019,423.595 c 0,1.049 -0.851,1.9 -1.9,1.9 -1.049,0 -1.9,-0.851 -1.9,-1.9 0,-1.05 0.851,-1.9 1.9,-1.9 1.049,0 1.9,0.85 1.9,1.9 z"
                 style="fill:#000000;fill-opacity:1;fill-rule:evenodd;stroke:#000000;stroke-width:0.76;stroke-linecap:butt;stroke-linejoin:round;stroke-miterlimit:10;stroke-dasharray:none;stroke-opacity:1"
                 id="path70" /></g><g
               id="g72"><path
                 d="m 282.222,385.266 c 0,1.049 -0.851,1.9 -1.9,1.9 -1.05,0 -1.9,-0.851 -1.9,-1.9 0,-1.05 0.85,-1.9 1.9,-1.9 1.049,0 1.9,0.85 1.9,1.9 z"
                 style="fill:#000000;fill-opacity:1;fill-rule:evenodd;stroke:#000000;stroke-width:0.76;stroke-linecap:butt;stroke-linejoin:round;stroke-miterlimit:10;stroke-dasharray:none;stroke-opacity:1"
                 id="path74" /></g><g
               id="g76"><path
                 d="m 320.194,412.644 c 0,1.049 -0.85,1.9 -1.9,1.9 -1.049,0 -1.9,-0.851 -1.9,-1.9 0,-1.05 0.851,-1.9 1.9,-1.9 1.05,0 1.9,0.85 1.9,1.9 z"
                 style="fill:#000000;fill-opacity:1;fill-rule:evenodd;stroke:#000000;stroke-width:0.76;stroke-linecap:butt;stroke-linejoin:round;stroke-miterlimit:10;stroke-dasharray:none;stroke-opacity:1"
                 id="path78" /></g><g
               id="g80"><path
                 d="m 331.586,429.492 c 0,1.049 -0.85,1.9 -1.9,1.9 -1.049,0 -1.9,-0.851 -1.9,-1.9 0,-1.05 0.851,-1.9 1.9,-1.9 1.05,0 1.9,0.85 1.9,1.9 z"
                 style="fill:#000000;fill-opacity:1;fill-rule:evenodd;stroke:#000000;stroke-width:0.76;stroke-linecap:butt;stroke-linejoin:round;stroke-miterlimit:10;stroke-dasharray:none;stroke-opacity:1"
                 id="path82" /></g><g
               id="g84"><path
                 d="m 320.616,386.529 c 0,1.05 -0.85,1.9 -1.9,1.9 -1.049,0 -1.9,-0.85 -1.9,-1.9 0,-1.049 0.851,-1.9 1.9,-1.9 1.05,0 1.9,0.851 1.9,1.9 z"
                 style="fill:#000000;fill-opacity:1;fill-rule:evenodd;stroke:#000000;stroke-width:0.76;stroke-linecap:butt;stroke-linejoin:round;stroke-miterlimit:10;stroke-dasharray:none;stroke-opacity:1"
                 id="path86" /></g><g
               id="g88"><path
                 d="m 337.071,410.538 c 0,1.049 -0.85,1.9 -1.9,1.9 -1.049,0 -1.9,-0.851 -1.9,-1.9 0,-1.05 0.851,-1.9 1.9,-1.9 1.05,0 1.9,0.85 1.9,1.9 z"
                 style="fill:#000000;fill-opacity:1;fill-rule:evenodd;stroke:#000000;stroke-width:0.76;stroke-linecap:butt;stroke-linejoin:round;stroke-miterlimit:10;stroke-dasharray:none;stroke-opacity:1"
                 id="path90" /></g><g
               id="g92"
               transform="translate(280.183,449.894)"><g
                 id="g94"
                 transform="translate(0,-786.275)"><text
                   transform="matrix(1,0,0,-1,0.672,788.104)"
                   style="font-variant:normal;font-size:8.9664px;font-family:'Nimbus Roman';-inkscape-font-specification:NimbusRomNo9L-ReguItal;writing-mode:lr-tb;fill:#000000;fill-opacity:1;fill-rule:nonzero;stroke:none"
                   id="text98"><tspan
                     x="0"
                     y="0"
                     id="tspan96">p</tspan></text></g></g><g
               id="g100"
               transform="translate(312.371,446.234)"><g
                 id="g102"
                 transform="translate(0,-786.23)"><text
                   transform="matrix(1,0,0,-1,0,788.104)"
                   style="font-variant:normal;font-size:8.9664px;font-family:'Nimbus Roman';-inkscape-font-specification:NimbusRomNo9L-ReguItal;writing-mode:lr-tb;fill:#000000;fill-opacity:1;fill-rule:nonzero;stroke:none"
                   id="text106"><tspan
                     x="0"
                     y="0"
                     id="tspan104">q</tspan></text></g></g><g
               id="g108"><path
                 d="M 236.832,452.665 358.168,437.128"
                 style="fill:none;stroke:#000000;stroke-width:1.2;stroke-linecap:butt;stroke-linejoin:round;stroke-miterlimit:10;stroke-dasharray:none;stroke-opacity:1"
                 id="path110" /><g
                 id="g112"><path
                   d="m 358.168,437.128 -4.747,2.289 -0.424,-3.307 z"
                   style="fill:#000000;fill-opacity:1;fill-rule:evenodd;stroke:#000000;stroke-width:1.2;stroke-linecap:butt;stroke-linejoin:round;stroke-miterlimit:10;stroke-dasharray:none;stroke-opacity:1"
                   id="path114" /></g></g></g></g></g></g></g></svg>
