<?xml version="1.0" encoding="UTF-8" standalone="no"?>
<svg
   xmlns:dc="http://purl.org/dc/elements/1.1/"
   xmlns:cc="http://creativecommons.org/ns#"
   xmlns:rdf="http://www.w3.org/1999/02/22-rdf-syntax-ns#"
   xmlns:svg="http://www.w3.org/2000/svg"
   xmlns="http://www.w3.org/2000/svg"
   version="1.1"
   id="svg2"
   xml:space="preserve"
   width="115.876"
   height="111.33867"
   viewBox="0 0 115.876 111.33867"><metadata
     id="metadata8"><rdf:RDF><cc:Work
         rdf:about=""><dc:format>image/svg+xml</dc:format><dc:type
           rdf:resource="http://purl.org/dc/dcmitype/StillImage" /></cc:Work></rdf:RDF></metadata><defs
     id="defs6"><clipPath
       clipPathUnits="userSpaceOnUse"
       id="clipPath22"><path
         d="m 254.047,378.783 h 86.907 v 83.504 h -86.907 z"
         id="path20" /></clipPath></defs><g
     id="g10"
     transform="matrix(1.3333333,0,0,-1.3333333,4.3520002e-7,111.33869)"><g
       id="g12"><g
         id="g14"
         transform="translate(-254.047,-378.783)"><g
           id="g16"><g
             id="g18"
             clip-path="url(#clipPath22)"><g
               id="g24"><path
                 d="m 259.107,418.912 c 0,1.05 -0.851,1.9 -1.9,1.9 -1.049,0 -1.9,-0.85 -1.9,-1.9 0,-1.049 0.851,-1.9 1.9,-1.9 1.049,0 1.9,0.851 1.9,1.9 z"
                 style="fill:#000000;fill-opacity:1;fill-rule:evenodd;stroke:#000000;stroke-width:0.76;stroke-linecap:butt;stroke-linejoin:round;stroke-miterlimit:10;stroke-dasharray:none;stroke-opacity:1"
                 id="path26" /></g><g
               id="g28"><path
                 d="m 270.726,449.743 c 0,1.049 -0.851,1.9 -1.9,1.9 -1.049,0 -1.9,-0.851 -1.9,-1.9 0,-1.05 0.851,-1.9 1.9,-1.9 1.049,0 1.9,0.85 1.9,1.9 z"
                 style="fill:#000000;fill-opacity:1;fill-rule:evenodd;stroke:#000000;stroke-width:0.76;stroke-linecap:butt;stroke-linejoin:round;stroke-miterlimit:10;stroke-dasharray:none;stroke-opacity:1"
                 id="path30" /></g><g
               id="g32"><path
                 d="m 285.819,459.127 c 0,1.049 -0.851,1.9 -1.9,1.9 -1.05,0 -1.9,-0.851 -1.9,-1.9 0,-1.049 0.85,-1.9 1.9,-1.9 1.049,0 1.9,0.851 1.9,1.9 z"
                 style="fill:#000000;fill-opacity:1;fill-rule:evenodd;stroke:#000000;stroke-width:0.76;stroke-linecap:butt;stroke-linejoin:round;stroke-miterlimit:10;stroke-dasharray:none;stroke-opacity:1"
                 id="path34" /></g><g
               id="g36"><path
                 d="m 296.104,449.872 c 0,1.05 -0.851,1.9 -1.9,1.9 -1.049,0 -1.9,-0.85 -1.9,-1.9 0,-1.049 0.851,-1.9 1.9,-1.9 1.049,0 1.9,0.851 1.9,1.9 z"
                 style="fill:#000000;fill-opacity:1;fill-rule:evenodd;stroke:#000000;stroke-width:0.76;stroke-linecap:butt;stroke-linejoin:round;stroke-miterlimit:10;stroke-dasharray:none;stroke-opacity:1"
                 id="path38" /></g><g
               id="g40"><path
                 d="m 306.864,432.059 c 0,1.05 -0.851,1.9 -1.9,1.9 -1.049,0 -1.9,-0.85 -1.9,-1.9 0,-1.049 0.851,-1.9 1.9,-1.9 1.049,0 1.9,0.851 1.9,1.9 z"
                 style="fill:#000000;fill-opacity:1;fill-rule:evenodd;stroke:#000000;stroke-width:0.76;stroke-linecap:butt;stroke-linejoin:round;stroke-miterlimit:10;stroke-dasharray:none;stroke-opacity:1"
                 id="path42" /></g><g
               id="g44"><path
                 d="m 309.019,402.183 c 0,1.05 -0.85,1.9 -1.9,1.9 -1.049,0 -1.9,-0.85 -1.9,-1.9 0,-1.049 0.851,-1.9 1.9,-1.9 1.05,0 1.9,0.851 1.9,1.9 z"
                 style="fill:#000000;fill-opacity:1;fill-rule:evenodd;stroke:#000000;stroke-width:0.76;stroke-linecap:butt;stroke-linejoin:round;stroke-miterlimit:10;stroke-dasharray:none;stroke-opacity:1"
                 id="path46" /></g><g
               id="g48"><path
                 d="m 268.111,406.57 c 0,1.049 -0.85,1.899 -1.899,1.899 -1.05,0 -1.9,-0.85 -1.9,-1.899 0,-1.05 0.85,-1.9 1.9,-1.9 1.049,0 1.899,0.85 1.899,1.9 z"
                 style="fill:#000000;fill-opacity:1;fill-rule:evenodd;stroke:#000000;stroke-width:0.76;stroke-linecap:butt;stroke-linejoin:round;stroke-miterlimit:10;stroke-dasharray:none;stroke-opacity:1"
                 id="path50" /></g><g
               id="g52"><path
                 d="m 318.227,454.976 c 0,1.049 -0.851,1.9 -1.9,1.9 -1.049,0 -1.9,-0.851 -1.9,-1.9 0,-1.049 0.851,-1.9 1.9,-1.9 1.049,0 1.9,0.851 1.9,1.9 z"
                 style="fill:#000000;fill-opacity:1;fill-rule:evenodd;stroke:#000000;stroke-width:0.76;stroke-linecap:butt;stroke-linejoin:round;stroke-miterlimit:10;stroke-dasharray:none;stroke-opacity:1"
                 id="path54" /></g><g
               id="g56"><path
                 d="m 290.329,417.638 c 0,1.05 -0.85,1.9 -1.9,1.9 -1.049,0 -1.9,-0.85 -1.9,-1.9 0,-1.049 0.851,-1.9 1.9,-1.9 1.05,0 1.9,0.851 1.9,1.9 z"
                 style="fill:#000000;fill-opacity:1;fill-rule:evenodd;stroke:#000000;stroke-width:0.76;stroke-linecap:butt;stroke-linejoin:round;stroke-miterlimit:10;stroke-dasharray:none;stroke-opacity:1"
                 id="path58" /></g><g
               id="g60"><path
                 d="m 273.627,429.869 c 0,1.049 -0.851,1.9 -1.9,1.9 -1.049,0 -1.9,-0.851 -1.9,-1.9 0,-1.05 0.851,-1.9 1.9,-1.9 1.049,0 1.9,0.85 1.9,1.9 z"
                 style="fill:#000000;fill-opacity:1;fill-rule:evenodd;stroke:#000000;stroke-width:0.76;stroke-linecap:butt;stroke-linejoin:round;stroke-miterlimit:10;stroke-dasharray:none;stroke-opacity:1"
                 id="path62" /></g><g
               id="g64"><path
                 d="m 288.641,435.75 c 0,1.049 -0.85,1.9 -1.9,1.9 -1.049,0 -1.9,-0.851 -1.9,-1.9 0,-1.049 0.851,-1.9 1.9,-1.9 1.05,0 1.9,0.851 1.9,1.9 z"
                 style="fill:#000000;fill-opacity:1;fill-rule:evenodd;stroke:#000000;stroke-width:0.76;stroke-linecap:butt;stroke-linejoin:round;stroke-miterlimit:10;stroke-dasharray:none;stroke-opacity:1"
                 id="path66" /></g><g
               id="g68"><path
                 d="m 284.844,397.421 c 0,1.049 -0.85,1.9 -1.9,1.9 -1.049,0 -1.9,-0.851 -1.9,-1.9 0,-1.05 0.851,-1.9 1.9,-1.9 1.05,0 1.9,0.85 1.9,1.9 z"
                 style="fill:#000000;fill-opacity:1;fill-rule:evenodd;stroke:#000000;stroke-width:0.76;stroke-linecap:butt;stroke-linejoin:round;stroke-miterlimit:10;stroke-dasharray:none;stroke-opacity:1"
                 id="path70" /></g><g
               id="g72"><path
                 d="m 322.817,424.799 c 0,1.049 -0.851,1.9 -1.9,1.9 -1.049,0 -1.9,-0.851 -1.9,-1.9 0,-1.05 0.851,-1.9 1.9,-1.9 1.049,0 1.9,0.85 1.9,1.9 z"
                 style="fill:#000000;fill-opacity:1;fill-rule:evenodd;stroke:#000000;stroke-width:0.76;stroke-linecap:butt;stroke-linejoin:round;stroke-miterlimit:10;stroke-dasharray:none;stroke-opacity:1"
                 id="path74" /></g><g
               id="g76"><path
                 d="m 334.209,441.647 c 0,1.049 -0.851,1.9 -1.9,1.9 -1.049,0 -1.9,-0.851 -1.9,-1.9 0,-1.05 0.851,-1.9 1.9,-1.9 1.049,0 1.9,0.85 1.9,1.9 z"
                 style="fill:#000000;fill-opacity:1;fill-rule:evenodd;stroke:#000000;stroke-width:0.76;stroke-linecap:butt;stroke-linejoin:round;stroke-miterlimit:10;stroke-dasharray:none;stroke-opacity:1"
                 id="path78" /></g><g
               id="g80"><path
                 d="m 323.239,398.684 c 0,1.05 -0.851,1.9 -1.9,1.9 -1.049,0 -1.9,-0.85 -1.9,-1.9 0,-1.049 0.851,-1.9 1.9,-1.9 1.049,0 1.9,0.851 1.9,1.9 z"
                 style="fill:#000000;fill-opacity:1;fill-rule:evenodd;stroke:#000000;stroke-width:0.76;stroke-linecap:butt;stroke-linejoin:round;stroke-miterlimit:10;stroke-dasharray:none;stroke-opacity:1"
                 id="path82" /></g><g
               id="g84"><path
                 d="m 339.694,422.693 c 0,1.049 -0.851,1.9 -1.9,1.9 -1.05,0 -1.9,-0.851 -1.9,-1.9 0,-1.05 0.85,-1.9 1.9,-1.9 1.049,0 1.9,0.85 1.9,1.9 z"
                 style="fill:#000000;fill-opacity:1;fill-rule:evenodd;stroke:#000000;stroke-width:0.76;stroke-linecap:butt;stroke-linejoin:round;stroke-miterlimit:10;stroke-dasharray:none;stroke-opacity:1"
                 id="path86" /></g><g
               id="g88"
               transform="translate(321.138,453.217)"><g
                 id="g90"
                 transform="translate(0,-786.275)"><text
                   transform="matrix(1,0,0,-1,0.672,788.104)"
                   style="font-variant:normal;font-size:8.9664px;font-family:'Nimbus Roman';-inkscape-font-specification:NimbusRomNo9L-ReguItal;writing-mode:lr-tb;fill:#000000;fill-opacity:1;fill-rule:nonzero;stroke:none"
                   id="text94"><tspan
                     x="0"
                     y="0"
                     id="tspan92">p</tspan></text><text
                   transform="matrix(1,0,0,-1,5.156,786.662)"
                   style="font-variant:normal;font-size:6.9738px;font-family:'Nimbus Roman';-inkscape-font-specification:NimbusRomNo9L-ReguItal;writing-mode:lr-tb;fill:#000000;fill-opacity:1;fill-rule:nonzero;stroke:none"
                   id="text98"><tspan
                     x="0"
                     y="0"
                     id="tspan96">i</tspan></text></g></g><g
               id="g100"><path
                 d="m 316.327,454.976 -9.208,-52.793"
                 style="fill:none;stroke:#000000;stroke-width:0.4;stroke-linecap:butt;stroke-linejoin:round;stroke-miterlimit:10;stroke-dasharray:4;stroke-dashoffset:0;stroke-opacity:1"
                 id="path102" /></g><g
               id="g104"><path
                 d="M 316.327,454.976 304.964,432.059"
                 style="fill:none;stroke:#000000;stroke-width:0.4;stroke-linecap:butt;stroke-linejoin:round;stroke-miterlimit:10;stroke-dasharray:4;stroke-dashoffset:0;stroke-opacity:1"
                 id="path106" /></g><g
               id="g108"><path
                 d="m 316.327,454.976 -22.123,-5.104"
                 style="fill:none;stroke:#000000;stroke-width:0.4;stroke-linecap:butt;stroke-linejoin:round;stroke-miterlimit:10;stroke-dasharray:4;stroke-dashoffset:0;stroke-opacity:1"
                 id="path110" /></g><g
               id="g112"><path
                 d="m 257.207,418.912 11.619,30.831 15.093,9.384 32.408,-4.151"
                 style="fill:none;stroke:#000000;stroke-width:1.2;stroke-linecap:butt;stroke-linejoin:round;stroke-miterlimit:10;stroke-dasharray:none;stroke-opacity:1"
                 id="path114" /></g><g
               id="g116"
               transform="translate(274.638,378.783)"><g
                 id="g118"
                 transform="translate(0,-783.944)"><text
                   transform="matrix(1,0,0,-1,0,785.885)"
                   style="font-variant:normal;font-size:8.9664px;font-family:'Nimbus Roman';-inkscape-font-specification:NimbusRomNo9L-Regu;writing-mode:lr-tb;fill:#000000;fill-opacity:1;fill-rule:nonzero;stroke:none"
                   id="text122"><tspan
                     x="0 4.4832001 8.9664001 11.459059 15.942259 18.434917 24.164448 28.647648 32.628731 35.121387 39.10247 41.595131 45.57621"
                     y="0"
                     id="tspan120">pointsdeleted</tspan></text></g></g><g
               id="g124"><path
                 d="m 293.914,388.997 -0.844,56.441"
                 style="fill:none;stroke:#000000;stroke-width:0.4;stroke-linecap:butt;stroke-linejoin:round;stroke-miterlimit:10;stroke-dasharray:none;stroke-opacity:1"
                 id="path126" /><g
                 id="g128"><path
                   d="m 293.07,445.438 -1.591,-5.025 3.333,0.05 z"
                   style="fill:#000000;fill-opacity:1;fill-rule:evenodd;stroke:#000000;stroke-width:0.4;stroke-linecap:butt;stroke-linejoin:round;stroke-miterlimit:10;stroke-dasharray:none;stroke-opacity:1"
                   id="path130" /></g></g><g
               id="g132"><path
                 d="m 296.024,389.839 6.75,39.593"
                 style="fill:none;stroke:#000000;stroke-width:0.4;stroke-linecap:butt;stroke-linejoin:round;stroke-miterlimit:10;stroke-dasharray:none;stroke-opacity:1"
                 id="path134" /><g
                 id="g136"><path
                   d="m 302.774,429.432 -2.483,-4.649 3.286,-0.56 z"
                   style="fill:#000000;fill-opacity:1;fill-rule:evenodd;stroke:#000000;stroke-width:0.4;stroke-linecap:butt;stroke-linejoin:round;stroke-miterlimit:10;stroke-dasharray:none;stroke-opacity:1"
                   id="path138" /></g></g><g
               id="g140"><path
                 d="m 297.711,389.418 6.751,11.794"
                 style="fill:none;stroke:#000000;stroke-width:0.4;stroke-linecap:butt;stroke-linejoin:round;stroke-miterlimit:10;stroke-dasharray:none;stroke-opacity:1"
                 id="path142" /><g
                 id="g144"><path
                   d="m 304.462,401.212 -3.93,-3.512 2.893,-1.656 z"
                   style="fill:#000000;fill-opacity:1;fill-rule:evenodd;stroke:#000000;stroke-width:0.4;stroke-linecap:butt;stroke-linejoin:round;stroke-miterlimit:10;stroke-dasharray:none;stroke-opacity:1"
                   id="path146" /></g></g><g
               id="g148"><path
                 d="m 283.919,459.127 10.285,-9.255 10.76,-17.813 2.155,-29.876"
                 style="fill:none;stroke:#000000;stroke-width:0.4;stroke-linecap:butt;stroke-linejoin:round;stroke-miterlimit:10;stroke-dasharray:none;stroke-opacity:1"
                 id="path150" /></g></g></g></g></g></g></svg>
