<?xml version="1.0" encoding="UTF-8" standalone="no"?>
<svg
   xmlns:dc="http://purl.org/dc/elements/1.1/"
   xmlns:cc="http://creativecommons.org/ns#"
   xmlns:rdf="http://www.w3.org/1999/02/22-rdf-syntax-ns#"
   xmlns:svg="http://www.w3.org/2000/svg"
   xmlns="http://www.w3.org/2000/svg"
   version="1.1"
   id="svg2"
   xml:space="preserve"
   width="136.23199"
   height="98.442665"
   viewBox="0 0 136.23199 98.442665"><metadata
     id="metadata8"><rdf:RDF><cc:Work
         rdf:about=""><dc:format>image/svg+xml</dc:format><dc:type
           rdf:resource="http://purl.org/dc/dcmitype/StillImage" /></cc:Work></rdf:RDF></metadata><defs
     id="defs6"><clipPath
       clipPathUnits="userSpaceOnUse"
       id="clipPath22"><path
         d="m 246.413,384.084 h 102.174 v 73.832 H 246.413 Z"
         id="path20" /></clipPath></defs><g
     id="g10"
     transform="matrix(1.3333333,0,0,-1.3333333,4.3520002e-7,98.44269)"><g
       id="g12"><g
         id="g14"
         transform="translate(-246.413,-384.084)"><g
           id="g16"><g
             id="g18"
             clip-path="url(#clipPath22)"><g
               id="g24"><path
                 d="m 249.573,402.716 12,24 28,12 36,-24"
                 style="fill:none;stroke:#000000;stroke-width:1.2;stroke-linecap:butt;stroke-linejoin:round;stroke-miterlimit:10;stroke-dasharray:none;stroke-opacity:1"
                 id="path26" /></g><g
               id="g28"><path
                 d="m 251.473,402.716 c 0,1.049 -0.851,1.9 -1.9,1.9 -1.049,0 -1.9,-0.851 -1.9,-1.9 0,-1.049 0.851,-1.9 1.9,-1.9 1.049,0 1.9,0.851 1.9,1.9 z"
                 style="fill:#000000;fill-opacity:1;fill-rule:evenodd;stroke:#000000;stroke-width:0.76;stroke-linecap:butt;stroke-linejoin:round;stroke-miterlimit:10;stroke-dasharray:none;stroke-opacity:1"
                 id="path30" /></g><g
               id="g32"><path
                 d="m 263.473,426.716 c 0,1.049 -0.851,1.9 -1.9,1.9 -1.049,0 -1.9,-0.851 -1.9,-1.9 0,-1.049 0.851,-1.9 1.9,-1.9 1.049,0 1.9,0.851 1.9,1.9 z"
                 style="fill:#000000;fill-opacity:1;fill-rule:evenodd;stroke:#000000;stroke-width:0.76;stroke-linecap:butt;stroke-linejoin:round;stroke-miterlimit:10;stroke-dasharray:none;stroke-opacity:1"
                 id="path34" /></g><g
               id="g36"><path
                 d="m 291.473,438.716 c 0,1.049 -0.851,1.9 -1.9,1.9 -1.049,0 -1.9,-0.851 -1.9,-1.9 0,-1.049 0.851,-1.9 1.9,-1.9 1.049,0 1.9,0.851 1.9,1.9 z"
                 style="fill:#000000;fill-opacity:1;fill-rule:evenodd;stroke:#000000;stroke-width:0.76;stroke-linecap:butt;stroke-linejoin:round;stroke-miterlimit:10;stroke-dasharray:none;stroke-opacity:1"
                 id="path38" /></g><g
               id="g40"><path
                 d="m 327.473,414.716 c 0,1.049 -0.851,1.9 -1.9,1.9 -1.049,0 -1.9,-0.851 -1.9,-1.9 0,-1.049 0.851,-1.9 1.9,-1.9 1.049,0 1.9,0.851 1.9,1.9 z"
                 style="fill:#000000;fill-opacity:1;fill-rule:evenodd;stroke:#000000;stroke-width:0.76;stroke-linecap:butt;stroke-linejoin:round;stroke-miterlimit:10;stroke-dasharray:none;stroke-opacity:1"
                 id="path42" /></g><g
               id="g44"><path
                 d="m 310.552,425.997 c 0,1.049 -0.851,1.9 -1.9,1.9 -1.049,0 -1.9,-0.851 -1.9,-1.9 0,-1.049 0.851,-1.9 1.9,-1.9 1.049,0 1.9,0.851 1.9,1.9 z"
                 style="fill:#000000;fill-opacity:1;fill-rule:evenodd;stroke:#000000;stroke-width:0.76;stroke-linecap:butt;stroke-linejoin:round;stroke-miterlimit:10;stroke-dasharray:none;stroke-opacity:1"
                 id="path46" /></g><g
               id="g48"
               transform="translate(254.936,384.084)"><g
                 id="g50"
                 transform="translate(0,-783.944)"><text
                   transform="matrix(1,0,0,-1,0,785.885)"
                   style="font-variant:normal;font-size:8.9664px;font-family:'Nimbus Roman';-inkscape-font-specification:NimbusRomNo9L-Regu;writing-mode:lr-tb;fill:#000000;fill-opacity:1;fill-rule:nonzero;stroke:none"
                   id="text54"><tspan
                     x="0 4.4832001 8.9664001 13.700659 19.923342 22.909151 25.401812 29.885012 34.36821 39.10247 41.595131 46.078331 49.06414"
                     y="0"
                     id="tspan52">notarightturn</tspan></text></g></g><g
               id="g56"><path
                 d="m 289.595,396.14 17.27,27.437"
                 style="fill:none;stroke:#000000;stroke-width:0.4;stroke-linecap:butt;stroke-linejoin:round;stroke-miterlimit:10;stroke-dasharray:none;stroke-opacity:1"
                 id="path58" /><g
                 id="g60"><path
                   d="m 306.865,423.577 -4.074,-3.344 2.821,-1.775 z"
                   style="fill:#000000;fill-opacity:1;fill-rule:evenodd;stroke:#000000;stroke-width:0.4;stroke-linecap:butt;stroke-linejoin:round;stroke-miterlimit:10;stroke-dasharray:none;stroke-opacity:1"
                   id="path62" /></g></g><g
               id="g64"><path
                 d="m 348.187,399.64 -86.815,57.877"
                 style="fill:none;stroke:#000000;stroke-width:0.4;stroke-linecap:butt;stroke-linejoin:round;stroke-miterlimit:10;stroke-dasharray:none;stroke-opacity:1"
                 id="path66" /></g></g></g></g></g></g></svg>
