<?xml version="1.0" encoding="UTF-8" standalone="no"?>
<svg
   xmlns:dc="http://purl.org/dc/elements/1.1/"
   xmlns:cc="http://creativecommons.org/ns#"
   xmlns:rdf="http://www.w3.org/1999/02/22-rdf-syntax-ns#"
   xmlns:svg="http://www.w3.org/2000/svg"
   xmlns="http://www.w3.org/2000/svg"
   version="1.1"
   id="svg2"
   xml:space="preserve"
   width="326.28668"
   height="350.95334"
   viewBox="0 0 326.28668 350.95334"><metadata
     id="metadata8"><rdf:RDF><cc:Work
         rdf:about=""><dc:format>image/svg+xml</dc:format><dc:type
           rdf:resource="http://purl.org/dc/dcmitype/StillImage" /></cc:Work></rdf:RDF></metadata><defs
     id="defs6" /><g
     id="g10"
     transform="matrix(1.3333333,0,0,-1.3333333,-231.37867,1066.7747)"><g
       id="g12"
       transform="translate(72,769.89)"><g
         id="g14"
         transform="translate(110.504,-163.914)"><g
           id="g16"><g
             id="g18"><path
               d="M 5.66927,0 C 5.66927,3.13109 3.13109,5.66927 0,5.66927 -3.13109,5.66927 -5.66927,3.13109 -5.66927,0 c 0,-3.13109 2.53818,-5.66927 5.66927,-5.66927 3.13109,0 5.66927,2.53818 5.66927,5.66927 z m 28.34681,56.69362 c 0,3.13108 -2.53819,5.66926 -5.66928,5.66926 -3.13109,0 -5.66926,-2.53818 -5.66926,-5.66926 0,-3.1311 2.53817,-5.66928 5.66926,-5.66928 3.13109,0 5.66928,2.53818 5.66928,5.66928 z m 56.69362,56.69362 c 0,3.13109 -2.53819,5.66926 -5.66928,5.66926 -3.13109,0 -5.66927,-2.53817 -5.66927,-5.66926 0,-3.13111 2.53818,-5.66928 5.66927,-5.66928 3.13109,0 5.66928,2.53817 5.66928,5.66928 z m 56.69362,28.3468 c 0,3.13109 -2.53819,5.66928 -5.66928,5.66928 -3.13109,0 -5.66927,-2.53819 -5.66927,-5.66928 0,-3.13109 2.53818,-5.66927 5.66927,-5.66927 3.13109,0 5.66928,2.53818 5.66928,5.66927 z m 56.69362,-56.69362 c 0,3.13109 -2.53819,5.66928 -5.66928,5.66928 -3.13109,0 -5.66927,-2.53819 -5.66927,-5.66928 0,-3.13109 2.53818,-5.66927 5.66927,-5.66927 3.13109,0 5.66928,2.53818 5.66928,5.66927 z m 28.3468,-56.69362 c 0,3.13109 -2.53818,5.66928 -5.66926,5.66928 -3.13109,0 -5.66928,-2.53819 -5.66928,-5.66928 0,-3.13109 2.53819,-5.66926 5.66928,-5.66926 3.13108,0 5.66926,2.53817 5.66926,5.66926 z m -85.04042,-85.04042 c 0,3.1311 -2.53819,5.66928 -5.66928,5.66928 -3.13109,0 -5.66927,-2.53818 -5.66927,-5.66928 0,-3.13108 2.53818,-5.66926 5.66927,-5.66926 3.13109,0 5.66928,2.53818 5.66928,5.66926 z"
               style="fill:#000000;fill-opacity:1;fill-rule:nonzero;stroke:#000000;stroke-width:0.3985;stroke-linecap:butt;stroke-linejoin:miter;stroke-miterlimit:10;stroke-dasharray:none;stroke-opacity:1"
               id="path20" /><g
               id="g22"><path
                 d="m 0,0 28.3468,56.69362 m 0,0 56.69362,56.69362 m 0,0 56.69362,28.3468 m 0,0 56.69362,-56.69362 m 0,0 28.34682,-56.69362"
                 style="fill:none;stroke:#000000;stroke-width:1.59404;stroke-linecap:butt;stroke-linejoin:miter;stroke-miterlimit:10;stroke-dasharray:none;stroke-opacity:1"
                 id="path24" /></g><g
               id="g26"><path
                 d="M 0,0 141.73404,-56.69362 M 226.77448,28.3468 141.73404,-56.69362"
                 style="fill:none;stroke:#000000;stroke-width:1.59404;stroke-linecap:butt;stroke-linejoin:miter;stroke-miterlimit:10;stroke-dasharray:2.98883, 2.98883;stroke-dashoffset:0;stroke-opacity:1"
                 id="path28" /></g><g
               id="g30"><path
                 d="m 119.0565,56.69362 c 0,3.13108 -2.53817,5.66926 -5.66926,5.66926 -3.13111,0 -5.66928,-2.53818 -5.66928,-5.66926 0,-3.1311 2.53817,-5.66928 5.66928,-5.66928 3.13109,0 5.66926,2.53818 5.66926,5.66928 z"
                 style="fill:#ff0000;fill-opacity:1;fill-rule:nonzero;stroke:#ff0000;stroke-width:0.3985;stroke-linecap:butt;stroke-linejoin:miter;stroke-miterlimit:10;stroke-dasharray:none;stroke-opacity:1"
                 id="path32" /></g><g
               id="g34"><path
                 d="m 119.0565,170.08086 c 0,3.13108 -2.53817,5.66926 -5.66926,5.66926 -3.13111,0 -5.66928,-2.53818 -5.66928,-5.66926 0,-3.13109 2.53817,-5.66928 5.66928,-5.66928 3.13109,0 5.66926,2.53819 5.66926,5.66928 z"
                 style="fill:#0000ff;fill-opacity:1;fill-rule:nonzero;stroke:#0000ff;stroke-width:0.3985;stroke-linecap:butt;stroke-linejoin:miter;stroke-miterlimit:10;stroke-dasharray:none;stroke-opacity:1"
                 id="path36" /></g><g
               id="g38"><path
                 d="m 113.38724,56.69362 -28.34682,56.69362 m 28.34682,-56.69362 28.3468,85.04042"
                 style="fill:none;stroke:#ff0000;stroke-width:1.59404;stroke-linecap:butt;stroke-linejoin:miter;stroke-miterlimit:10;stroke-dasharray:2.98883, 2.98883;stroke-dashoffset:0;stroke-opacity:1"
                 id="path40" /></g><g
               id="g42"><path
                 d="M 113.38724,170.08086 85.04042,113.38724 m 28.34682,56.69362 28.3468,-28.34682"
                 style="fill:none;stroke:#0000ff;stroke-width:1.59404;stroke-linecap:butt;stroke-linejoin:miter;stroke-miterlimit:10;stroke-dasharray:2.98883, 2.98883;stroke-dashoffset:0;stroke-opacity:1"
                 id="path44" /></g><g
               id="g46"><g
                 id="g48"><g
                   id="g50"
                   transform="scale(-1)"><g
                     id="g52" /><g
                     id="g54"
                     transform="rotate(180,55.252,-81.957)"><g
                       id="g56" /><g
                       id="g58"
                       transform="translate(119.016,36.877)"><text
                         transform="matrix(1,0,0,-1,110.504,-163.914)"
                         style="font-style:italic;font-variant:normal;font-weight:normal;font-size:17.2154px;font-family:CMMI12;-inkscape-font-specification:CMMI12;writing-mode:lr-tb;fill:#000000;fill-opacity:1;fill-rule:nonzero;stroke:none"
                         id="text62"><tspan
                           x="0"
                           y="0"
                           id="tspan60">i</tspan></text></g><g
                       id="g64"
                       transform="translate(110.504,-163.914)" /></g></g></g></g><g
               id="g66"><g
                 id="g68"><g
                   id="g70"
                   transform="scale(-1)"><g
                     id="g72" /><g
                     id="g74"
                     transform="rotate(180,55.252,-81.957)"><g
                       id="g76" /><g
                       id="g78"
                       transform="translate(119.016,178.611)"><text
                         transform="matrix(1,0,0,-1,110.504,-163.914)"
                         style="font-style:italic;font-variant:normal;font-weight:normal;font-size:17.2154px;font-family:CMMI12;-inkscape-font-specification:CMMI12;writing-mode:lr-tb;fill:#000000;fill-opacity:1;fill-rule:nonzero;stroke:none"
                         id="text82"><tspan
                           x="0"
                           y="0"
                           id="tspan80">i</tspan></text></g><g
                       id="g84"
                       transform="translate(110.504,-163.914)" /></g></g></g></g><g
               id="g86"><g
                 id="g88"><g
                   id="g90"
                   transform="scale(-1)"><g
                     id="g92" /><g
                     id="g94"
                     transform="rotate(180,55.252,-81.957)"><g
                       id="g96" /><g
                       id="g98"
                       transform="translate(69.731,117.922)"><text
                         transform="matrix(1,0,0,-1,110.504,-163.914)"
                         style="font-style:italic;font-variant:normal;font-weight:normal;font-size:17.2154px;font-family:CMMI12;-inkscape-font-specification:CMMI12;writing-mode:lr-tb;fill:#000000;fill-opacity:1;fill-rule:nonzero;stroke:none"
                         id="text102"><tspan
                           x="0"
                           y="0"
                           id="tspan100">j</tspan></text></g><g
                       id="g104"
                       transform="translate(110.504,-163.914)" /></g></g></g></g><g
               id="g106"><g
                 id="g108"><g
                   id="g110"
                   transform="scale(-1)"><g
                     id="g112" /><g
                     id="g114"
                     transform="rotate(180,55.252,-81.957)"><g
                       id="g116" /><g
                       id="g118"
                       transform="translate(151.235,144.261)"><text
                         transform="matrix(1,0,0,-1,110.504,-163.914)"
                         style="font-style:italic;font-variant:normal;font-weight:normal;font-size:17.2154px;font-family:CMMI12;-inkscape-font-specification:CMMI12;writing-mode:lr-tb;fill:#000000;fill-opacity:1;fill-rule:nonzero;stroke:none"
                         id="text122"><tspan
                           x="0"
                           y="0"
                           id="tspan120">k</tspan></text></g><g
                       id="g124"
                       transform="translate(110.504,-163.914)" /></g></g></g></g></g></g></g><text
         transform="matrix(1,0,0,-1,223.013,-757.258)"
         style="font-variant:normal;font-size:10.5px;font-family:LMRoman10-Regular-Identity;-inkscape-font-specification:LMRoman10-Regular-Identity-H;writing-mode:lr-tb;fill:#000000;fill-opacity:1;fill-rule:nonzero;stroke:none"
         id="text128"><tspan
           x="0"
           y="0"
           id="tspan126">1</tspan></text></g></g></svg>
