<?xml version="1.0" encoding="UTF-8" standalone="no"?>
<svg
   xmlns:dc="http://purl.org/dc/elements/1.1/"
   xmlns:cc="http://creativecommons.org/ns#"
   xmlns:rdf="http://www.w3.org/1999/02/22-rdf-syntax-ns#"
   xmlns:svg="http://www.w3.org/2000/svg"
   xmlns="http://www.w3.org/2000/svg"
   version="1.1"
   id="svg2"
   xml:space="preserve"
   width="318.01334"
   height="393.60001"
   viewBox="0 0 318.01334 393.60001"><metadata
     id="metadata8"><rdf:RDF><cc:Work
         rdf:about=""><dc:format>image/svg+xml</dc:format><dc:type
           rdf:resource="http://purl.org/dc/dcmitype/StillImage" /></cc:Work></rdf:RDF></metadata><defs
     id="defs6" /><g
     id="g10"
     transform="matrix(1.3333333,0,0,-1.3333333,0,393.6)"><g
       id="g12"
       transform="translate(72,223.201)"><g
         id="g14"
         transform="translate(-66.132,-160.64)"><g
           id="g16"><g
             id="g18"><g
               id="g20"><g
                 id="g22"><g
                   id="g24"
                   transform="scale(-1)"><g
                     id="g26" /><g
                     id="g28"
                     transform="rotate(180,-33.066,-80.32)"><g
                       id="g30" /><g
                       id="g32" /><g
                       id="g34"
                       transform="translate(-66.132,-160.64)" /></g></g></g></g><g
               id="g36"><g
                 id="g38"><g
                   id="g40"
                   transform="scale(-1)"><g
                     id="g42" /><g
                     id="g44"
                     transform="rotate(180,-33.066,-80.32)"><g
                       id="g46" /><g
                       id="g48"
                       transform="translate(28.347,56.694)" /><g
                       id="g50"
                       transform="translate(-66.132,-160.64)" /></g></g></g></g><g
               id="g52"><g
                 id="g54"><g
                   id="g56"
                   transform="scale(-1)"><g
                     id="g58" /><g
                     id="g60"
                     transform="rotate(180,-33.066,-80.32)"><g
                       id="g62" /><g
                       id="g64"
                       transform="translate(85.04,113.387)" /><g
                       id="g66"
                       transform="translate(-66.132,-160.64)" /></g></g></g></g><g
               id="g68"><g
                 id="g70"><g
                   id="g72"
                   transform="scale(-1)"><g
                     id="g74" /><g
                     id="g76"
                     transform="rotate(180,-33.066,-80.32)"><g
                       id="g78" /><g
                       id="g80"
                       transform="translate(141.734,141.734)" /><g
                       id="g82"
                       transform="translate(-66.132,-160.64)" /></g></g></g></g><g
               id="g84"><g
                 id="g86"><g
                   id="g88"
                   transform="scale(-1)"><g
                     id="g90" /><g
                     id="g92"
                     transform="rotate(180,-33.066,-80.32)"><g
                       id="g94" /><g
                       id="g96"
                       transform="translate(198.428,85.04)" /><g
                       id="g98"
                       transform="translate(-66.132,-160.64)" /></g></g></g></g><g
               id="g100"><g
                 id="g102"><g
                   id="g104"
                   transform="scale(-1)"><g
                     id="g106" /><g
                     id="g108"
                     transform="rotate(180,-33.066,-80.32)"><g
                       id="g110" /><g
                       id="g112"
                       transform="translate(226.774,28.347)" /><g
                       id="g114"
                       transform="translate(-66.132,-160.64)" /></g></g></g></g><g
               id="g116"><g
                 id="g118"><g
                   id="g120"
                   transform="scale(-1)"><g
                     id="g122" /><g
                     id="g124"
                     transform="rotate(180,-33.066,-80.32)"><g
                       id="g126" /><g
                       id="g128"
                       transform="translate(141.734,-56.694)" /><g
                       id="g130"
                       transform="translate(-66.132,-160.64)" /></g></g></g></g><g
               id="g132"><g
                 id="g134"><g
                   id="g136"
                   transform="scale(-1)"><g
                     id="g138" /><g
                     id="g140"
                     transform="rotate(180,-33.066,-80.32)"><g
                       id="g142" /><g
                       id="g144"
                       transform="translate(113.387,226.774)" /><g
                       id="g146"
                       transform="translate(-66.132,-160.64)" /></g></g></g></g><path
               d="M 5.66927,0 C 5.66927,3.13109 3.13109,5.66927 0,5.66927 -3.13109,5.66927 -5.66927,3.13109 -5.66927,0 c 0,-3.13109 2.53818,-5.66927 5.66927,-5.66927 3.13109,0 5.66927,2.53818 5.66927,5.66927 z m 28.34681,56.69362 c 0,3.13108 -2.53819,5.66926 -5.66928,5.66926 -3.13109,0 -5.66926,-2.53818 -5.66926,-5.66926 0,-3.1311 2.53817,-5.66928 5.66926,-5.66928 3.13109,0 5.66928,2.53818 5.66928,5.66928 z m 56.69362,56.69362 c 0,3.13109 -2.53819,5.66926 -5.66928,5.66926 -3.13109,0 -5.66927,-2.53817 -5.66927,-5.66926 0,-3.13111 2.53818,-5.66928 5.66927,-5.66928 3.13109,0 5.66928,2.53817 5.66928,5.66928 z m 56.69362,28.3468 c 0,3.13109 -2.53819,5.66928 -5.66928,5.66928 -3.13109,0 -5.66927,-2.53819 -5.66927,-5.66928 0,-3.13109 2.53818,-5.66927 5.66927,-5.66927 3.13109,0 5.66928,2.53818 5.66928,5.66927 z m 56.69362,-56.69362 c 0,3.13109 -2.53819,5.66928 -5.66928,5.66928 -3.13109,0 -5.66927,-2.53819 -5.66927,-5.66928 0,-3.13109 2.53818,-5.66927 5.66927,-5.66927 3.13109,0 5.66928,2.53818 5.66928,5.66927 z m 28.3468,-56.69362 c 0,3.13109 -2.53818,5.66928 -5.66926,5.66928 -3.13109,0 -5.66928,-2.53819 -5.66928,-5.66928 0,-3.13109 2.53819,-5.66926 5.66928,-5.66926 3.13108,0 5.66926,2.53817 5.66926,5.66926 z m -85.04042,-85.04042 c 0,3.1311 -2.53819,5.66928 -5.66928,5.66928 -3.13109,0 -5.66927,-2.53818 -5.66927,-5.66928 0,-3.13108 2.53818,-5.66926 5.66927,-5.66926 3.13109,0 5.66928,2.53818 5.66928,5.66926 z"
               style="fill:#000000;fill-opacity:1;fill-rule:nonzero;stroke:#000000;stroke-width:0.3985;stroke-linecap:butt;stroke-linejoin:miter;stroke-miterlimit:10;stroke-dasharray:none;stroke-opacity:1"
               id="path148" /><g
               id="g150"><path
                 d="m 1.75867,3.5198 24.82925,49.654 m 5.2787,7.03705 49.65604,49.65657 m 7.03758,5.27848 49.65398,24.82926 m 7.03964,-1.75835 49.65604,-49.65657 m 5.27643,-7.03964 24.82927,-49.65398"
                 style="fill:none;stroke:#000000;stroke-width:1.59404;stroke-linecap:butt;stroke-linejoin:miter;stroke-miterlimit:10;stroke-dasharray:none;stroke-opacity:1"
                 id="path152" /></g><g
               id="g154"><path
                 d="M 3.5198,-1.40677 138.21422,-55.28775 M 223.25465,24.83107 145.25026,-53.1738"
                 style="fill:none;stroke:#000000;stroke-width:1.59404;stroke-linecap:butt;stroke-linejoin:miter;stroke-miterlimit:10;stroke-dasharray:2.98883, 2.98883;stroke-dashoffset:0;stroke-opacity:1"
                 id="path156" /></g><g
               id="g158"><path
                 d="m 119.0565,226.77448 c 0,3.13108 -2.53817,5.66926 -5.66926,5.66926 -3.13111,0 -5.66928,-2.53818 -5.66928,-5.66926 0,-3.13109 2.53817,-5.66928 5.66928,-5.66928 3.13109,0 5.66926,2.53819 5.66926,5.66928 z"
                 style="fill:#0000ff;fill-opacity:1;fill-rule:nonzero;stroke:#0000ff;stroke-width:0.3985;stroke-linecap:butt;stroke-linejoin:miter;stroke-miterlimit:10;stroke-dasharray:none;stroke-opacity:1"
                 id="path160" /></g><g
               id="g162"><path
                 d="M 111.62727,223.25465 30.10262,60.21344 M 112.50766,223.25465 85.91908,116.90706 m 28.64012,106.34759 26.00277,-78.00079 m -25.06455,78.00079 80.82146,-134.69441"
                 style="fill:none;stroke:#0000ff;stroke-width:1.59404;stroke-linecap:butt;stroke-linejoin:miter;stroke-miterlimit:10;stroke-dasharray:2.98883, 2.98883;stroke-dashoffset:0;stroke-opacity:1"
                 id="path164" /></g><g
               id="g166"><g
                 id="g168"><g
                   id="g170"
                   transform="scale(-1)"><g
                     id="g172" /><g
                     id="g174"
                     transform="rotate(180,-33.066,-80.32)"><g
                       id="g176" /><g
                       id="g178"
                       transform="translate(126.165,221.907)"><text
                         transform="matrix(1,0,0,-1,-66.132,-160.64)"
                         style="font-style:italic;font-variant:normal;font-weight:normal;font-size:17.2154px;font-family:CMMI12;-inkscape-font-specification:CMMI12;writing-mode:lr-tb;fill:#000000;fill-opacity:1;fill-rule:nonzero;stroke:none"
                         id="text182"><tspan
                           x="0"
                           y="0"
                           id="tspan180">p</tspan></text></g><g
                       id="g184"
                       transform="translate(-66.132,-160.64)" /></g></g></g></g></g></g></g></g></g></svg>
